<svg xmlns="http://www.w3.org/2000/svg" xmlns:xlink="http://www.w3.org/1999/xlink" viewBox="0 0 556 556"><defs><style>.cls-1{fill:none;}.cls-2{fill:#1d482a;}.cls-3{isolation:isolate;}.cls-4{fill:#630200;}.cls-5{fill:#840200;}.cls-6{fill:url(#Even_Stipple:_Light);}.cls-7{fill:#f0f1f4;}.cls-8{fill:#a52b00;}.cls-10,.cls-9{fill:#8e807a;}.cls-10,.cls-18{mix-blend-mode:multiply;}.cls-11{fill:#f74c00;}.cls-12{fill:#fff;}.cls-13{fill:#fb9b0d;}.cls-14{opacity:0.2;fill:url(#Even_Stipple:_Light-3);}.cls-15{fill:#e02e0b;}.cls-16{clip-path:url(#clip-path);}.cls-17{opacity:0.7;}.cls-18{fill:#ccc;}</style><pattern id="Even_Stipple:_Light" data-name="Even Stipple: Light" width="17.64" height="17.64" patternTransform="translate(-84.23 109.03) scale(15.53)" patternUnits="userSpaceOnUse" viewBox="0 0 17.64 17.64"><rect class="cls-1" width="17.64" height="17.64"/><path class="cls-2" d="M1.62,10.22a.47.47,0,0,1-.06.15.74.74,0,0,1-.2.16c-.35.22-.61,0-.7-.32a.29.29,0,0,1,.12-.33.91.91,0,0,1,.16-.11.32.32,0,0,1,.3,0,1.07,1.07,0,0,1,.27.16A.37.37,0,0,1,1.62,10.22Z"/><path class="cls-2" d="M13.17,15c-.38,0-.6-.17-.64-.47a.42.42,0,0,1,.06-.31,1.66,1.66,0,0,1,.26-.27.38.38,0,0,1,.47,0l.2.24a.48.48,0,0,1,0,.54A.46.46,0,0,1,13.17,15Z"/><path class="cls-2" d="M2.16,16.68a.38.38,0,0,1-.27.4H1.83l-.06,0a.51.51,0,0,1-.6-.22.43.43,0,0,1,0-.42.7.7,0,0,1,.35-.35.38.38,0,0,1,.42,0A.63.63,0,0,1,2.16,16.68Z"/><path class="cls-2" d="M13.57,16.41a.77.77,0,0,1,.39.18.5.5,0,0,1,0,.77.57.57,0,0,1-.36.11.51.51,0,0,1-.44-.69.68.68,0,0,1,.12-.22A.31.31,0,0,1,13.57,16.41Z"/><path class="cls-2" d="M3.8,14.26l.21,0a.33.33,0,0,1,.21.13.5.5,0,0,1-.14.72l-.06,0c-.39.25-.68-.09-.72-.39v-.07a.57.57,0,0,1,.29-.39A.61.61,0,0,1,3.8,14.26Z"/><path class="cls-2" d="M6.1,2.42a.53.53,0,0,1-.47.45.39.39,0,0,1-.42-.21.94.94,0,0,1-.1-.23.29.29,0,0,1,0-.24A1.21,1.21,0,0,1,5.35,2a.24.24,0,0,1,.23-.06,1.57,1.57,0,0,1,.3.12A.44.44,0,0,1,6.1,2.42Z"/><path class="cls-2" d="M8.33.74a.32.32,0,0,1-.06.15.58.58,0,0,1-.19.16c-.36.22-.62,0-.71-.33A.29.29,0,0,1,7.49.39l.16-.1a.32.32,0,0,1,.3,0,1.24,1.24,0,0,1,.27.17A.37.37,0,0,1,8.33.74Z"/><path class="cls-2" d="M16.84,4.21a.42.42,0,0,1-.06.15,1,1,0,0,1-.19.16c-.36.21-.62,0-.71-.33A.29.29,0,0,1,16,3.86l.16-.11a.32.32,0,0,1,.3,0,1.2,1.2,0,0,1,.27.16A.38.38,0,0,1,16.84,4.21Z"/><path class="cls-2" d="M2.73,4.57A.59.59,0,0,1,3,4.09a.41.41,0,0,1,.52,0l.09.08a.51.51,0,0,1-.25.88.53.53,0,0,1-.56-.31C2.74,4.69,2.74,4.6,2.73,4.57Z"/><path class="cls-2" d="M4.41,7.81a.38.38,0,0,1-.27.4H4.08L4,8.24A.5.5,0,0,1,3.42,8a.42.42,0,0,1,0-.42.7.7,0,0,1,.35-.35.4.4,0,0,1,.42,0A.62.62,0,0,1,4.41,7.81Z"/><path class="cls-2" d="M6.37,5.11a.53.53,0,0,1-.46.45.42.42,0,0,1-.43-.22,1.6,1.6,0,0,1-.1-.23.29.29,0,0,1,0-.24,1.16,1.16,0,0,1,.2-.24.23.23,0,0,1,.24,0,1.45,1.45,0,0,1,.29.11A.43.43,0,0,1,6.37,5.11Z"/><path class="cls-2" d="M1.17,3.41a.32.32,0,0,1-.06.15.78.78,0,0,1-.2.16c-.35.21-.61,0-.7-.33a.29.29,0,0,1,.12-.33L.49,3a.3.3,0,0,1,.3,0,2.4,2.4,0,0,1,.27.16A.39.39,0,0,1,1.17,3.41Z"/><path class="cls-2" d="M12.61.26a.64.64,0,0,1,.17,0A.61.61,0,0,1,13,1a.33.33,0,0,1-.11.15.54.54,0,0,1-.74-.06.48.48,0,0,1,0-.69A.51.51,0,0,1,12.61.26Z"/><path class="cls-2" d="M1.35.82a.5.5,0,1,1-1,.1A.51.51,0,0,1,.8.39.53.53,0,0,1,1.35.82Z"/><path class="cls-2" d="M1.39,6.66a.38.38,0,0,1-.27.4H1.06L1,7.09A.48.48,0,0,1,.4,6.87a.43.43,0,0,1,0-.42A.67.67,0,0,1,.71,6.1a.42.42,0,0,1,.42,0A.68.68,0,0,1,1.39,6.66Z"/><path class="cls-2" d="M7.7,7.78a.51.51,0,0,1-.46.45A.44.44,0,0,1,6.81,8a.92.92,0,0,1-.09-.23.28.28,0,0,1,0-.25A2.2,2.2,0,0,1,7,7.31a.24.24,0,0,1,.24-.06,1.48,1.48,0,0,1,.29.12A.4.4,0,0,1,7.7,7.78Z"/><path class="cls-2" d="M4.36.74A.32.32,0,0,1,4.3.89a.58.58,0,0,1-.19.16c-.35.22-.62,0-.71-.33A.29.29,0,0,1,3.52.39l.16-.1a.32.32,0,0,1,.3,0,1.24,1.24,0,0,1,.27.17A.37.37,0,0,1,4.36.74Z"/><path class="cls-2" d="M16.73,7.67a.5.5,0,1,1-.55-.43A.53.53,0,0,1,16.73,7.67Z"/><path class="cls-2" d="M13.53,3.62a.53.53,0,0,1,0,.18.65.65,0,0,1-.45.32H13a.65.65,0,0,1-.42-.24.47.47,0,0,1,.18-.69.45.45,0,0,1,.53,0,1.1,1.1,0,0,1,.21.22A.55.55,0,0,1,13.53,3.62Z"/><path class="cls-2" d="M10.08,5.6a.51.51,0,0,1-.46.45.42.42,0,0,1-.43-.21.92.92,0,0,1-.09-.23.26.26,0,0,1,0-.24,1.59,1.59,0,0,1,.2-.24.26.26,0,0,1,.24-.06,1.48,1.48,0,0,1,.29.12A.4.4,0,0,1,10.08,5.6Z"/><path class="cls-2" d="M8.77,16.12a.53.53,0,0,1-.47.45.42.42,0,0,1-.42-.21.94.94,0,0,1-.1-.23.29.29,0,0,1,0-.24A1.21,1.21,0,0,1,8,15.65a.22.22,0,0,1,.23-.06,1.88,1.88,0,0,1,.3.12A.44.44,0,0,1,8.77,16.12Z"/><path class="cls-2" d="M8.28,10.2a.6.6,0,0,1,.24-.47.39.39,0,0,1,.51,0l.09.09a.5.5,0,0,1-.25.87.49.49,0,0,1-.55-.3A1.36,1.36,0,0,1,8.28,10.2Z"/><path class="cls-2" d="M16.37,1.08a.51.51,0,0,1-.48.56.52.52,0,0,1-.52-.46.51.51,0,0,1,.45-.53A.53.53,0,0,1,16.37,1.08Z"/><path class="cls-2" d="M10.39,2.94a.36.36,0,0,1-.27.4l-.06,0H10a.5.5,0,0,1-.6-.22.42.42,0,0,1,0-.42.7.7,0,0,1,.35-.35.42.42,0,0,1,.42,0A.65.65,0,0,1,10.39,2.94Z"/><path class="cls-2" d="M14.85,10.38a1,1,0,0,1-.06.18.65.65,0,0,1-.44.32h-.06a.68.68,0,0,1-.43-.25A.47.47,0,0,1,14,10a.45.45,0,0,1,.53,0,1.61,1.61,0,0,1,.22.23A.67.67,0,0,1,14.85,10.38Z"/><path class="cls-2" d="M12.73,7.17a.59.59,0,0,1-.57-.41.28.28,0,0,1,0-.18c.06-.13.13-.26.2-.39A.4.4,0,0,1,12.81,6a.64.64,0,0,1,.48.59.47.47,0,0,1-.26.47C12.92,7.13,12.79,7.15,12.73,7.17Z"/><path class="cls-2" d="M15.79,12a.59.59,0,0,1,.24-.48.38.38,0,0,1,.51,0l.09.08a.51.51,0,1,1-.8.57A1.3,1.3,0,0,1,15.79,12Z"/><path class="cls-2" d="M11.74,11.46a.68.68,0,0,1,.57.42.51.51,0,0,1-.12.47.68.68,0,0,1-.45.19.34.34,0,0,1-.32-.15l-.07-.11a.58.58,0,0,1,.27-.79Z"/><path class="cls-2" d="M7.43,11.91a1.27,1.27,0,0,1-.06.18.69.69,0,0,1-.44.32H6.87a.67.67,0,0,1-.43-.24.48.48,0,0,1,.18-.7.45.45,0,0,1,.53,0,1.15,1.15,0,0,1,.22.22A1,1,0,0,1,7.43,11.91Z"/><path class="cls-2" d="M.62,13.44a1.17,1.17,0,0,1,.22,0,.3.3,0,0,1,.2.13.51.51,0,0,1-.14.72l-.05,0A.47.47,0,0,1,.12,14a.13.13,0,0,1,0-.06.57.57,0,0,1,.28-.39A.68.68,0,0,1,.62,13.44Z"/><path class="cls-2" d="M5.68,9.92a.52.52,0,0,1-.47.45.41.41,0,0,1-.43-.21.92.92,0,0,1-.09-.23.26.26,0,0,1,0-.24,1.59,1.59,0,0,1,.2-.24.26.26,0,0,1,.24-.06,2.52,2.52,0,0,1,.29.12A.43.43,0,0,1,5.68,9.92Z"/><path class="cls-2" d="M6.68,14.35a.51.51,0,0,1-.07.15.58.58,0,0,1-.19.16c-.35.22-.61,0-.7-.32A.28.28,0,0,1,5.84,14L6,13.9a.37.37,0,0,1,.31,0,1.45,1.45,0,0,1,.26.17A.35.35,0,0,1,6.68,14.35Z"/><path class="cls-2" d="M6.16,17a.36.36,0,0,1-.06.15,1,1,0,0,1-.19.16c-.36.21-.62,0-.71-.33a.29.29,0,0,1,.12-.33.54.54,0,0,1,.16-.1.3.3,0,0,1,.3,0,1.48,1.48,0,0,1,.27.16A.39.39,0,0,1,6.16,17Z"/><path class="cls-2" d="M10.42,13.51a.37.37,0,0,1-.28.39l-.06,0H10a.49.49,0,0,1-.6-.22.42.42,0,0,1,0-.42.7.7,0,0,1,.35-.35.4.4,0,0,1,.42.05A.66.66,0,0,1,10.42,13.51Z"/><path class="cls-2" d="M11.07,16.41c0,.06,0,.12-.05.18a.71.71,0,0,1-.45.32s0,0-.06,0a.69.69,0,0,1-.43-.24.48.48,0,0,1,.19-.7.44.44,0,0,1,.52,0,1.15,1.15,0,0,1,.22.22A1,1,0,0,1,11.07,16.41Z"/><path class="cls-2" d="M11.59,9.43A.59.59,0,0,1,11,9a.22.22,0,0,1,0-.18,2.14,2.14,0,0,1,.2-.4.4.4,0,0,1,.44-.16.66.66,0,0,1,.49.6.46.46,0,0,1-.27.46A2.24,2.24,0,0,1,11.59,9.43Z"/><path class="cls-2" d="M3.11,11.48a.64.64,0,0,1,.17,0,.61.61,0,0,1,.25.72.36.36,0,0,1-.11.16.54.54,0,0,1-.74-.07.47.47,0,0,1,0-.68A.52.52,0,0,1,3.11,11.48Z"/><path class="cls-2" d="M16.14,14.84a1.42,1.42,0,0,1,.16.05.62.62,0,0,1,.25.73.4.4,0,0,1-.1.15.55.55,0,0,1-.75-.06.48.48,0,0,1,0-.69A.59.59,0,0,1,16.14,14.84Z"/></pattern><pattern id="Even_Stipple:_Light-3" data-name="Even Stipple: Light" width="17.64" height="17.64" patternTransform="translate(105.17 570) rotate(128.57) scale(3)" patternUnits="userSpaceOnUse" viewBox="0 0 17.64 17.64"><rect class="cls-1" width="17.64" height="17.64"/><path class="cls-2" d="M1.62,10.22a.47.47,0,0,1-.06.15.74.74,0,0,1-.2.16c-.35.22-.61,0-.7-.32a.29.29,0,0,1,.12-.33.91.91,0,0,1,.16-.11.32.32,0,0,1,.3,0,1.07,1.07,0,0,1,.27.16A.37.37,0,0,1,1.62,10.22Z"/><path class="cls-2" d="M13.17,15c-.38,0-.6-.17-.64-.47a.42.42,0,0,1,.06-.31,1.66,1.66,0,0,1,.26-.27.38.38,0,0,1,.47,0l.2.24a.48.48,0,0,1,0,.54A.46.46,0,0,1,13.17,15Z"/><path class="cls-2" d="M2.16,16.68a.38.38,0,0,1-.27.4H1.83l-.06,0a.51.51,0,0,1-.6-.22.43.43,0,0,1,0-.42.7.7,0,0,1,.35-.35.38.38,0,0,1,.42,0A.63.63,0,0,1,2.16,16.68Z"/><path class="cls-2" d="M13.57,16.41a.77.77,0,0,1,.39.18.5.5,0,0,1,0,.77.57.57,0,0,1-.36.11.51.51,0,0,1-.44-.69.68.68,0,0,1,.12-.22A.31.31,0,0,1,13.57,16.41Z"/><path class="cls-2" d="M3.8,14.26l.21,0a.33.33,0,0,1,.21.13.5.5,0,0,1-.14.72l-.06,0c-.39.25-.68-.09-.72-.39v-.07a.57.57,0,0,1,.29-.39A.61.61,0,0,1,3.8,14.26Z"/><path class="cls-2" d="M6.1,2.42a.53.53,0,0,1-.47.45.39.39,0,0,1-.42-.21.94.94,0,0,1-.1-.23.29.29,0,0,1,0-.24A1.21,1.21,0,0,1,5.35,2a.24.24,0,0,1,.23-.06,1.57,1.57,0,0,1,.3.12A.44.44,0,0,1,6.1,2.42Z"/><path class="cls-2" d="M8.33.74a.32.32,0,0,1-.06.15.58.58,0,0,1-.19.16c-.36.22-.62,0-.71-.33A.29.29,0,0,1,7.49.39l.16-.1a.32.32,0,0,1,.3,0,1.24,1.24,0,0,1,.27.17A.37.37,0,0,1,8.33.74Z"/><path class="cls-2" d="M16.84,4.21a.42.42,0,0,1-.06.15,1,1,0,0,1-.19.16c-.36.21-.62,0-.71-.33A.29.29,0,0,1,16,3.86l.16-.11a.32.32,0,0,1,.3,0,1.2,1.2,0,0,1,.27.16A.38.38,0,0,1,16.84,4.21Z"/><path class="cls-2" d="M2.73,4.57A.59.59,0,0,1,3,4.09a.41.41,0,0,1,.52,0l.09.08a.51.51,0,0,1-.25.88.53.53,0,0,1-.56-.31C2.74,4.69,2.74,4.6,2.73,4.57Z"/><path class="cls-2" d="M4.41,7.81a.38.38,0,0,1-.27.4H4.08L4,8.24A.5.5,0,0,1,3.42,8a.42.42,0,0,1,0-.42.7.7,0,0,1,.35-.35.4.4,0,0,1,.42,0A.62.62,0,0,1,4.41,7.81Z"/><path class="cls-2" d="M6.37,5.11a.53.53,0,0,1-.46.45.42.42,0,0,1-.43-.22,1.6,1.6,0,0,1-.1-.23.29.29,0,0,1,0-.24,1.16,1.16,0,0,1,.2-.24.23.23,0,0,1,.24,0,1.45,1.45,0,0,1,.29.11A.43.43,0,0,1,6.37,5.11Z"/><path class="cls-2" d="M1.17,3.41a.32.32,0,0,1-.06.15.78.78,0,0,1-.2.16c-.35.21-.61,0-.7-.33a.29.29,0,0,1,.12-.33L.49,3a.3.3,0,0,1,.3,0,2.4,2.4,0,0,1,.27.16A.39.39,0,0,1,1.17,3.41Z"/><path class="cls-2" d="M12.61.26a.64.64,0,0,1,.17,0A.61.61,0,0,1,13,1a.33.33,0,0,1-.11.15.54.54,0,0,1-.74-.06.48.48,0,0,1,0-.69A.51.51,0,0,1,12.61.26Z"/><path class="cls-2" d="M1.35.82a.5.5,0,1,1-1,.1A.51.51,0,0,1,.8.39.53.53,0,0,1,1.35.82Z"/><path class="cls-2" d="M1.39,6.66a.38.38,0,0,1-.27.4H1.06L1,7.09A.48.48,0,0,1,.4,6.87a.43.43,0,0,1,0-.42A.67.67,0,0,1,.71,6.1a.42.42,0,0,1,.42,0A.68.68,0,0,1,1.39,6.66Z"/><path class="cls-2" d="M7.7,7.78a.51.51,0,0,1-.46.45A.44.44,0,0,1,6.81,8a.92.92,0,0,1-.09-.23.28.28,0,0,1,0-.25A2.2,2.2,0,0,1,7,7.31a.24.24,0,0,1,.24-.06,1.48,1.48,0,0,1,.29.12A.4.4,0,0,1,7.7,7.78Z"/><path class="cls-2" d="M4.36.74A.32.32,0,0,1,4.3.89a.58.58,0,0,1-.19.16c-.35.22-.62,0-.71-.33A.29.29,0,0,1,3.52.39l.16-.1a.32.32,0,0,1,.3,0,1.24,1.24,0,0,1,.27.17A.37.37,0,0,1,4.36.74Z"/><path class="cls-2" d="M16.73,7.67a.5.5,0,1,1-.55-.43A.53.53,0,0,1,16.73,7.67Z"/><path class="cls-2" d="M13.53,3.62a.53.53,0,0,1,0,.18.65.65,0,0,1-.45.32H13a.65.65,0,0,1-.42-.24.47.47,0,0,1,.18-.69.45.45,0,0,1,.53,0,1.1,1.1,0,0,1,.21.22A.55.55,0,0,1,13.53,3.62Z"/><path class="cls-2" d="M10.08,5.6a.51.51,0,0,1-.46.45.42.42,0,0,1-.43-.21.92.92,0,0,1-.09-.23.26.26,0,0,1,0-.24,1.59,1.59,0,0,1,.2-.24.26.26,0,0,1,.24-.06,1.48,1.48,0,0,1,.29.12A.4.4,0,0,1,10.08,5.6Z"/><path class="cls-2" d="M8.77,16.12a.53.53,0,0,1-.47.45.42.42,0,0,1-.42-.21.94.94,0,0,1-.1-.23.29.29,0,0,1,0-.24A1.21,1.21,0,0,1,8,15.65a.22.22,0,0,1,.23-.06,1.88,1.88,0,0,1,.3.12A.44.44,0,0,1,8.77,16.12Z"/><path class="cls-2" d="M8.28,10.2a.6.6,0,0,1,.24-.47.39.39,0,0,1,.51,0l.09.09a.5.5,0,0,1-.25.87.49.49,0,0,1-.55-.3A1.36,1.36,0,0,1,8.28,10.2Z"/><path class="cls-2" d="M16.37,1.08a.51.51,0,0,1-.48.56.52.52,0,0,1-.52-.46.51.51,0,0,1,.45-.53A.53.53,0,0,1,16.37,1.08Z"/><path class="cls-2" d="M10.39,2.94a.36.36,0,0,1-.27.4l-.06,0H10a.5.5,0,0,1-.6-.22.42.42,0,0,1,0-.42.7.7,0,0,1,.35-.35.42.42,0,0,1,.42,0A.65.65,0,0,1,10.39,2.94Z"/><path class="cls-2" d="M14.85,10.38a1,1,0,0,1-.06.18.65.65,0,0,1-.44.32h-.06a.68.68,0,0,1-.43-.25A.47.47,0,0,1,14,10a.45.45,0,0,1,.53,0,1.61,1.61,0,0,1,.22.23A.67.67,0,0,1,14.85,10.38Z"/><path class="cls-2" d="M12.73,7.17a.59.59,0,0,1-.57-.41.28.28,0,0,1,0-.18c.06-.13.13-.26.2-.39A.4.4,0,0,1,12.81,6a.64.64,0,0,1,.48.59.47.47,0,0,1-.26.47C12.92,7.13,12.79,7.15,12.73,7.17Z"/><path class="cls-2" d="M15.79,12a.59.59,0,0,1,.24-.48.38.38,0,0,1,.51,0l.09.08a.51.51,0,1,1-.8.57A1.3,1.3,0,0,1,15.79,12Z"/><path class="cls-2" d="M11.74,11.46a.68.68,0,0,1,.57.42.51.51,0,0,1-.12.47.68.68,0,0,1-.45.19.34.34,0,0,1-.32-.15l-.07-.11a.58.58,0,0,1,.27-.79Z"/><path class="cls-2" d="M7.43,11.91a1.27,1.27,0,0,1-.06.18.69.69,0,0,1-.44.32H6.87a.67.67,0,0,1-.43-.24.48.48,0,0,1,.18-.7.45.45,0,0,1,.53,0,1.15,1.15,0,0,1,.22.22A1,1,0,0,1,7.43,11.91Z"/><path class="cls-2" d="M.62,13.44a1.17,1.17,0,0,1,.22,0,.3.3,0,0,1,.2.13.51.51,0,0,1-.14.72l-.05,0A.47.47,0,0,1,.12,14a.13.13,0,0,1,0-.06.57.57,0,0,1,.28-.39A.68.68,0,0,1,.62,13.44Z"/><path class="cls-2" d="M5.68,9.92a.52.52,0,0,1-.47.45.41.41,0,0,1-.43-.21.92.92,0,0,1-.09-.23.26.26,0,0,1,0-.24,1.59,1.59,0,0,1,.2-.24.26.26,0,0,1,.24-.06,2.52,2.52,0,0,1,.29.12A.43.43,0,0,1,5.68,9.92Z"/><path class="cls-2" d="M6.68,14.35a.51.51,0,0,1-.07.15.58.58,0,0,1-.19.16c-.35.22-.61,0-.7-.32A.28.28,0,0,1,5.84,14L6,13.9a.37.37,0,0,1,.31,0,1.45,1.45,0,0,1,.26.17A.35.35,0,0,1,6.68,14.35Z"/><path class="cls-2" d="M6.16,17a.36.36,0,0,1-.06.15,1,1,0,0,1-.19.16c-.36.21-.62,0-.71-.33a.29.29,0,0,1,.12-.33.54.54,0,0,1,.16-.1.3.3,0,0,1,.3,0,1.48,1.48,0,0,1,.27.16A.39.39,0,0,1,6.16,17Z"/><path class="cls-2" d="M10.42,13.51a.37.37,0,0,1-.28.39l-.06,0H10a.49.49,0,0,1-.6-.22.42.42,0,0,1,0-.42.7.7,0,0,1,.35-.35.4.4,0,0,1,.42.05A.66.66,0,0,1,10.42,13.51Z"/><path class="cls-2" d="M11.07,16.41c0,.06,0,.12-.05.18a.71.71,0,0,1-.45.32s0,0-.06,0a.69.69,0,0,1-.43-.24.48.48,0,0,1,.19-.7.44.44,0,0,1,.52,0,1.15,1.15,0,0,1,.22.22A1,1,0,0,1,11.07,16.41Z"/><path class="cls-2" d="M11.59,9.43A.59.59,0,0,1,11,9a.22.22,0,0,1,0-.18,2.14,2.14,0,0,1,.2-.4.4.4,0,0,1,.44-.16.66.66,0,0,1,.49.6.46.46,0,0,1-.27.46A2.24,2.24,0,0,1,11.59,9.43Z"/><path class="cls-2" d="M3.11,11.48a.64.64,0,0,1,.17,0,.61.61,0,0,1,.25.72.36.36,0,0,1-.11.16.54.54,0,0,1-.74-.07.47.47,0,0,1,0-.68A.52.52,0,0,1,3.11,11.48Z"/><path class="cls-2" d="M16.14,14.84a1.42,1.42,0,0,1,.16.05.62.62,0,0,1,.25.73.4.4,0,0,1-.1.15.55.55,0,0,1-.75-.06.48.48,0,0,1,0-.69A.59.59,0,0,1,16.14,14.84Z"/></pattern><clipPath id="clip-path"><ellipse class="cls-1" cx="412.28" cy="320.65" rx="24.79" ry="30.75" transform="translate(-109.97 313.86) rotate(-37.13)"/></clipPath></defs><g class="cls-3"><g id="Layer_1" data-name="Layer 1"><path class="cls-4" d="M470.62,101.59V67.09h-369v34.5h0a72,72,0,0,0-72,72v297.5a71.8,71.8,0,0,0,71.8,71.8h369.4a71.8,71.8,0,0,0,71.8-71.8V173.59a72,72,0,0,0-72-72Z"/><path class="cls-5" d="M44.78,190.62V451.2a71.91,71.91,0,0,0,71.91,71.91H455.17a72.29,72.29,0,0,0,72.29-72.28V190.75a72.28,72.28,0,0,0-72.28-72.28H116.93A72.15,72.15,0,0,0,44.78,190.62Z"/><path class="cls-6" d="M44.78,190.62V451.2a71.91,71.91,0,0,0,71.91,71.91H455.17a72.29,72.29,0,0,0,72.29-72.28V190.75a72.28,72.28,0,0,0-72.28-72.28H116.93A72.15,72.15,0,0,0,44.78,190.62Z"/><path class="cls-7" d="M542.23,476.42a2043.82,2043.82,0,0,1-512.22,0V172.2a2043.82,2043.82,0,0,0,512.22,0Z"/><path class="cls-8" d="M121,228.44c1.82-.2,3.65-.42,5.47-.65s3.62-.4,5.37-.52a43.71,43.71,0,0,1,7.48.16,26,26,0,0,1,7.8,2.17,17.44,17.44,0,0,1,7.35,7.16c1.72,3.11,2.56,7.31,2.5,12.66a30.91,30.91,0,0,1-2.52,12.85,25.35,25.35,0,0,1-6.86,8.89,38.51,38.51,0,0,1-10.67,6.1,116.27,116.27,0,0,1-14.06,4.37q-6.55,1.64-12.87,2.83a68.57,68.57,0,0,1-13.15,1.2V241a12,12,0,0,0,4.76,3.49,43.21,43.21,0,0,0,8,2.8,60.16,60.16,0,0,0,9.3,1.55,37.83,37.83,0,0,0,8.58-.1,14.33,14.33,0,0,0,5.47-1.75,3.79,3.79,0,0,0,2.08-3.59c-.07-1.67-.59-2.74-1.57-3.21a6.55,6.55,0,0,0-3.53-.48,16.51,16.51,0,0,0-2.28.4c-.76.18-1.52.39-2.28.61q-2.62.81-5.7,1.82a31.42,31.42,0,0,1-5.8,1.35,15.93,15.93,0,0,1-7.33-.54,12.42,12.42,0,0,1-5.22-3.45,14.88,14.88,0,0,1-3.12-5.79,26,26,0,0,1-1-7.44c-.08-5.19.63-9.21,2.11-12a13.65,13.65,0,0,1,6.24-6.13,24.48,24.48,0,0,1,9.4-2.17c3.59-.19,7.4-.27,11.45-.27q6.87,0,13.68.25t13.68.7q-.1,10.35-.2,20.71a15.54,15.54,0,0,0-4.89-3.17,61.69,61.69,0,0,0-8-3,83.4,83.4,0,0,0-9.29-2.25,39.11,39.11,0,0,0-8.57-.73,11.8,11.8,0,0,0-5.37,1.29,3.88,3.88,0,0,0-2.07,3.64c.06,2.08.65,3.47,1.75,4.18A5.75,5.75,0,0,0,121,228.44Z"/><path class="cls-8" d="M162.65,272a69.23,69.23,0,0,1,2.75-16.56,109.37,109.37,0,0,1,6.41-16.73,128.48,128.48,0,0,1,9.34-16.31q5.35-8,11.4-15.49l27.6-.05c8.53,9.58,15.25,18.73,20.12,27.79A71.09,71.09,0,0,1,248.9,262q-20.27,1.07-40.48,3.35a13,13,0,0,0,2.77-6.65,38.83,38.83,0,0,0,.15-8.68q-5.52.45-11,1a39.87,39.87,0,0,0-.05,8.86,9.8,9.8,0,0,0,2.75,6.14Q182.76,268.36,162.65,272Zm48.16-26.57q-.44-2.88-1-5.71c-.4-1.89-.82-3.72-1.26-5.51s-.88-3.46-1.32-5-.81-3-1.1-4.18q-1,3.81-2.51,9.49a112.32,112.32,0,0,0-2.54,11.7C204.3,245.94,207.56,245.68,210.81,245.45Z"/><path class="cls-8" d="M259,206.85h33q0,13.93,0,27.87a62.41,62.41,0,0,0,10.46-1.65,25.21,25.21,0,0,0,7.81-3.19q.08,15.8.14,31.6-25.83-1-51.69,0Q258.86,234.17,259,206.85Z"/><path class="cls-8" d="M345.26,223.27c1.83,0,3.67,0,5.5-.05s3.63,0,5.39,0a50.83,50.83,0,0,1,7.52.79,29.81,29.81,0,0,1,7.88,2.63,19.33,19.33,0,0,1,7.53,7.31c1.79,3.08,2.72,7.12,2.77,12.06.06,4.7-.7,8.45-2.27,11.21a14.09,14.09,0,0,1-6.76,6.06,28.23,28.23,0,0,1-10.71,2.07,122.84,122.84,0,0,1-14.28-.61q-6.69-.63-13.15-1.46a127,127,0,0,1-13.53-2.55l-.18-30.7a15.46,15.46,0,0,0,4.84,3,77.09,77.09,0,0,0,8.13,3.05q4.55,1.46,9.45,2.54a55.41,55.41,0,0,0,8.68,1.32,15.72,15.72,0,0,0,5.51-.5,2.45,2.45,0,0,0,2-2.62A3.2,3.2,0,0,0,358,234a8.45,8.45,0,0,0-3.56-.87,19.6,19.6,0,0,0-2.3,0c-.76.05-1.53.11-2.29.18l-5.74.65a38.15,38.15,0,0,1-5.86.24,23.84,23.84,0,0,1-7.42-1.34,16.84,16.84,0,0,1-5.31-3,12,12,0,0,1-3.19-4.33,13.38,13.38,0,0,1-1.06-5.22c-.1-3.57.59-6.3,2.07-8.22a12.78,12.78,0,0,1,6.21-4.21,33.54,33.54,0,0,1,9.38-1.54q5.38-.2,11.45-.2,6.87,0,13.69.21t13.69.65q.11,9.38.22,18.74a17.22,17.22,0,0,0-5-3.28,59.6,59.6,0,0,0-8.11-3.21,82.94,82.94,0,0,0-9.37-2.42,48.38,48.38,0,0,0-8.61-1,14.9,14.9,0,0,0-5.38.73,2.68,2.68,0,0,0-2,2.62,3.66,3.66,0,0,0,1.81,3.26A7.9,7.9,0,0,0,345.26,223.27Z"/><path class="cls-8" d="M388.07,268.79a55.28,55.28,0,0,1,2.4-15.11,96,96,0,0,1,6.06-15.1,150.63,150.63,0,0,1,9-15.44q5.17-7.84,11.05-16.12,13.8,0,27.6.09a162.43,162.43,0,0,1,20.4,39,150.83,150.83,0,0,1,8.68,41.29q-19.69-5.62-39.63-10.06,2.13-2.43,2.61-7.14a58.34,58.34,0,0,0,0-10.57q-5.46-.92-10.93-1.77a54,54,0,0,0,.15,10.24,17.6,17.6,0,0,0,2.86,8.08Q408.26,271.86,388.07,268.79ZM435.58,254q-.48-3.6-1.13-7.16c-.44-2.37-.89-4.66-1.37-6.88s-.94-4.3-1.42-6.24-.86-3.64-1.18-5.12q-.87,4.42-2.3,10.85t-2.28,13.14Q430.75,253.23,435.58,254Z"/><path class="cls-9" d="M81.37,10.06H490.86a17.19,17.19,0,0,1,17.19,17.19V67.34a0,0,0,0,1,0,0H64.19a0,0,0,0,1,0,0V27.25A17.19,17.19,0,0,1,81.37,10.06Z"/><path class="cls-10" d="M507.49,67.34H388a199.86,199.86,0,0,0,80.89-14.21c15.62-6.3,25.94-11.4,38.57-25.88Z"/><g id="Layer-1"><path class="cls-8" d="M402.6,418.8,399,412.1q0-.39,0-.78c-.36-7.78-8.77-14.57-22.62-19.68l.22,4.76c-1.35-.46-2.76-.91-4.22-1.34l-.1-2.22c-19.75-6.12-48.87-9.25-81.18-7.78-28.23,1.29-53.72,5.85-72.45,12.25l.35,7.74h0l-.43-9.37c-19.17,7.07-30.84,16.2-30.41,25.7a11.77,11.77,0,0,0,1.09,4.38l-1.82,3.61s-1.5,2.14,1.5,6.35c2.64,3.72,15.67,18.16,22.55,25.71,3,3.9,5,6.29,5.15,6.05.24-.4-2.1-7.86-8.06-16.23a160.75,160.75,0,0,1-8.25-15c5.34,3,36.55,17,98.78,14.12,63.59-3,90.95-24.16,93.93-27-.89,4.41-4.19,13.39-6.86,19.72-4.45,9.08-5.86,16.88-5.62,17.25s1.7-2.4,4-6.65c5.32-8.35,15.38-24.31,17.35-28.34,2.24-4.58.77-6.58.77-6.58"/><path class="cls-11" d="M404.85,409.05c-8.54-1.11-1.14-.12-6.38-6.36-.55-.5-.54-1.35-.86-2,2.15-3.5,4.64-7.29,6.66-10.69a3.47,3.47,0,0,0,.26-3.65,3.22,3.22,0,0,0-2.85-2.13c-3.8-.57-8.15-1-12.08-1.48-.52-.93-1-1.83-1.57-2.76,1.44-3.85,3.18-8.07,4.53-11.81a3.48,3.48,0,0,0-.43-3.64,3.12,3.12,0,0,0-3.19-1.51c-3.85.22-8.2.73-12.16,1l-2-2.36c.69-4.07,1.62-8.58,2.24-12.52a3.44,3.44,0,0,0-1.1-3.49,3.12,3.12,0,0,0-3.42-.83c-3.73,1-7.91,2.37-11.74,3.45l-2.44-1.92c-.1-4.13,0-8.74-.16-12.73a3.37,3.37,0,0,0-1.74-3.19,3.09,3.09,0,0,0-3.51-.12c-3.46,1.71-7.3,3.91-10.85,5.74l-2.78-1.4c-.86-4-1.65-8.55-2.53-12.43a3.31,3.31,0,0,0-2.31-2.77,3.1,3.1,0,0,0-3.47.59c-3.06,2.39-6.42,5.33-9.55,7.84l-3-.8c-1.6-3.77-3.23-8-4.81-11.67a3.25,3.25,0,0,0-2.78-2.25,3.14,3.14,0,0,0-3.29,1.29c-2.56,3-5.31,6.53-7.91,9.64l-3.05-.17c-2.28-3.39-4.68-7.26-6.93-10.5a3.53,3.53,0,0,0-6.13.3c-1.94,3.43-4,7.49-5.94,11.06l-3,.44c-2.87-2.85-5.94-6.15-8.76-8.87a3.13,3.13,0,0,0-3.39-1,3.24,3.24,0,0,0-2.56,2.51c-1.25,3.74-2.48,8.14-3.73,12-1,.37-1.93.72-2.91,1.07-3.34-2.22-7-4.81-10.23-6.9a3.1,3.1,0,0,0-3.51-.26,3.34,3.34,0,0,0-2,3c-.52,3.94-.9,8.49-1.39,12.57L233.34,341c-3.7-1.49-7.72-3.32-11.33-4.71a3.11,3.11,0,0,0-3.49.48,3.4,3.4,0,0,0-1.43,3.33c.24,4,.72,8.53,1,12.64l-2.25,2.12c-3.91-.71-8.2-1.69-12-2.32a3.15,3.15,0,0,0-3.33,1.18,3.46,3.46,0,0,0-.78,3.57c1,3.86,2.33,8.23,3.38,12.2l-1.8,2.54c-4,.1-8.34,0-12.2.19a3.2,3.2,0,0,0-3,1.82,3.48,3.48,0,0,0-.09,3.66c1.69,3.59,3.83,7.59,5.61,11.28l-1.31,2.89c-3.86.91-8.14,1.74-11.88,2.67a3.23,3.23,0,0,0-2.63,2.41,3.48,3.48,0,0,0,.6,3.61c2.33,3.18,5.16,6.67,7.61,9.93-.12.22.09.32-.28.6-4.22,6.86-15.34,15.86-18.16,22s-3.22,2.16,2.54,9.72c5.08,6.66,26.57,24.08,35.36,32.34,1.62.2,6.78,10.26,8.24,7s-8.45-16.81-11.8-19.76c-4-5.57-16-20.6-15.3-27.05a22,22,0,0,1,6.88-5.55c.17.11-.17-.13,0,0,61.66,24.53,135.66,22.46,194.47-8.15,9.05-.69,20.53,2.29,27.69,7.6s5.48,12.16,10.92,19.29c1.24,3.4,7.09,8,12.83,13.77,2.53-1.58.76-5.35-2.06-8-6.62-7.06-6-11.08-6-15.29.08-5.33-1.35-16.51-8-20.4Z"/><path class="cls-11" d="M377.68,404.83s14.18,3.51,38.1-9.72l4.32-5s-20.1-36.84,30-43.27c0,0-5.77,5.19-11.9,30,0,0,14.74-.68,25.09-21.16,0,0,11.87,31.49-36,43.53,0,0-28.17,24.93-54.2,14Z"/><path d="M310.37,398.56s9.62-11.55,20.25-.92c0,0,8.63,14.42,1,22.17,0,0-12.55,10.94-20.25.92,0,0-9.05-7.73-1-22.17"/><path class="cls-12" d="M322.28,402.14c.2,4.32-2.19,7.93-5.33,8.08s-5.84-3.25-6-7.56,2.19-7.94,5.33-8.08,5.84,3.24,6,7.56"/><path d="M265,397.59s17-8.48,22.54,8.47c0,0,5.88,19.78-13.3,21.79,0,0-24.73-3.61-9.24-30.26"/><path class="cls-12" d="M274.1,404.62c.21,4.45-2.25,8.18-5.49,8.33s-6-3.34-6.23-7.8,2.26-8.18,5.49-8.33,6,3.35,6.23,7.8"/><path d="M289,434.18l22.06-2.78a13,13,0,0,1-3.35,6.4s-7.24,8.7-16.39.06a11.21,11.21,0,0,1-2.32-3.68"/><path class="cls-11" d="M199.39,417.73a4.71,4.71,0,0,0-.54,0c-7.27-1.31-27.72-5.66-33.46-14,0,0,25.8-32.18-17.62-50l6.51,34s-13.5-8.16-17.2-27.06c0,0-30.86,24.62,16.15,44.72,0,0,4.89,15.49,45.52,26.17l0-.12a7.38,7.38,0,0,0,1.25.06,6.93,6.93,0,0,0-.63-13.85"/></g><path class="cls-13" d="M137.29,392.72c-13.61-21.9-21.45-40.94-27.74-64.08,4.88-6.12,32.11.7,37.16,1.07,7.49.55,23,2.51,28.52,9.31C185,351.09,151.46,381.47,137.29,392.72Z"/><path class="cls-14" d="M137.29,392.72c-13.61-21.9-21.45-40.94-27.74-64.08,4.88-6.12,32.11.7,37.16,1.07,7.49.55,23,2.51,28.52,9.31C185,351.09,151.46,381.47,137.29,392.72Z"/><path class="cls-11" d="M154.36,391.94l-.08-4.13s-13.5-8.16-17.2-27.06c0,0-30.86,24.62,16.15,44.72,0,0,4.89,15.49,45.52,26.17"/><path class="cls-15" d="M109.62,351.27l-4.49-21.66c-.71-3.42-.68-8.16,2.7-9.07,2.65-.71,5.17,1.79,7.91,1.74,1.6,0,3-.91,4.5-1.52,4.39-1.82,9.35-1.3,14.07-.7,3.08.4,6.34.89,8.75,2.85s3.46,5.95,1.32,8.21c-2.48,2.64-7.12,1.28-10.18,3.22-2.27,1.44-3.62,4.62-6.31,4.72-1.43.05-2.75-.88-4.18-.87-4.65,0-4.77,8.38-9.27,9.53"/><path class="cls-2" d="M126.92,322.54a2.41,2.41,0,0,1,2,3.41,3,3,0,0,1-4.11,1,3.94,3.94,0,0,1-1.56-4.16"/><path class="cls-2" d="M121.25,339c-1.34-.22-2.66.24-4,.18a4,4,0,0,0,.72,5.16c1.63-.84,1.29-3.63,2.9-4.54"/><path class="cls-2" d="M108.32,325.05a3.92,3.92,0,0,1,2.74.83,2.28,2.28,0,0,1,.26,2.57,3.87,3.87,0,0,1-2.12,1.72,2.22,2.22,0,0,1-2.35-.21,2.19,2.19,0,0,1-.47-1.13,5.76,5.76,0,0,1,.91-4.07"/><path class="cls-2" d="M137.56,324.29c-.86.57-1.77,1.49-1.23,2.61a2.11,2.11,0,0,0,1.11,1,4.17,4.17,0,0,0,1.49.26,2.51,2.51,0,0,0,1.38-.25,1.12,1.12,0,0,0,.59-1.19,1.68,1.68,0,0,0-.37-.59,6.85,6.85,0,0,0-1.3-1.28"/><path class="cls-13" d="M432.12,305.65c-10.29-13.59-27.48-17.9-38.4-9.64s-11.43,26-1.14,39.57c8.45,11.16,21.54,16.06,32,12.89,5.9,6.87,12.17,13.42,18.15,20.22a116.54,116.54,0,0,1,8.87,10.95c2,2.94,3.22,6.39,5.33,9.23,1.49,2,3.53,3.93,6.23,3.62,3-.35,4.62-3.17,4.27-6-.4-3.21-2.87-5.42-5-7.54-.08-.07-.37-.36-1-1.06-.77-.86-1.5-1.76-2.23-2.66-1.17-1.45-2.3-2.92-3.38-4.44-2.18-3.08-4.27-6.24-6.36-9.39Q445.16,355,441,348.47c-1.14-1.8-2.27-3.6-3.37-5.42a27.48,27.48,0,0,1-1.67-3l-.12-.21C441.72,330.67,440.54,316.78,432.12,305.65Zm26.7,81.82c.27.28.09.26,0,0Z"/><g class="cls-16"><rect class="cls-1" x="407.25" y="254.43" width="35.06" height="34.91" transform="translate(-78 311.52) rotate(-37.13)"/><path d="M434,256.26a1.61,1.61,0,0,0,.13.92,1.65,1.65,0,0,1,.07.59,7.81,7.81,0,0,1-.65,3,.36.36,0,0,1-.24.15H433c-.59-.06-1.18-.14-1.78-.18a6.82,6.82,0,0,1-1.93-.27h-.09a1,1,0,0,0-.72.16,1.74,1.74,0,0,0-.61.87.25.25,0,0,0,0,.17c0,.2.07.4.11.59a2.25,2.25,0,0,1,.06.69c-.05.44-.09.89-.16,1.34a8.73,8.73,0,0,1-.21,1,.32.32,0,0,1-.3.19l-.18,0L426,265c-.83-.29-1.66-.6-2.51-.87-.65-.21-1.09.37-1.18.94,0,.12,0,.24,0,.36a11.1,11.1,0,0,1,0,1.86,6,6,0,0,0-.15,1.12c0,.28-.05.57-.1.86s-.06.33-.42.29a2.06,2.06,0,0,1-.26,0,17.14,17.14,0,0,1-2.77-.75,2.19,2.19,0,0,0-.57-.16.6.6,0,0,0-.56.22.85.85,0,0,0-.26.46,1.64,1.64,0,0,0,0,.93,1.37,1.37,0,0,1,.09.57,7.22,7.22,0,0,1-.49,2.81.24.24,0,0,1-.21.14,2,2,0,0,1-.35,0c-.56-.08-1.13-.18-1.69-.25a6.59,6.59,0,0,1-1.84-.34h-.09a.88.88,0,0,0-.68.12,1.48,1.48,0,0,0-.54.81.33.33,0,0,0,0,.17c0,.19.08.38.13.57a1.82,1.82,0,0,1,.08.66c0,.43,0,.86-.08,1.29s-.1.63-.16.94a.29.29,0,0,1-.28.18l-.17,0-1.09-.43c-.8-.32-1.6-.65-2.41-.94a.9.9,0,0,0-1,.28l1.32,1.75.11,0,2.61,1.11a3,3,0,0,1,.8.44,1.14,1.14,0,0,0,.89.17,1,1,0,0,0,.79-.55.75.75,0,0,0,.12-.42,4.42,4.42,0,0,1,.09-1.2,13.77,13.77,0,0,0,.2-1.8,5.24,5.24,0,0,1,.1-.77.4.4,0,0,1,.39-.31h.27c.79.11,1.59.2,2.38.32a1.65,1.65,0,0,1,.72.23,1.21,1.21,0,0,0,1.37-.08c.52-.45.24-.91.28-1.46a16.28,16.28,0,0,1,.12-2c.06-.34.09-.69.14-1,0-.05,0-.11,0-.17a.23.23,0,0,1,.2-.16l.42.08a13.61,13.61,0,0,0,1.84.36,2.5,2.5,0,0,1,.65.17,1.24,1.24,0,0,0,.85,0,3.11,3.11,0,0,0,.5-.21.65.65,0,0,0,.29-.52l-.06-.33a3.87,3.87,0,0,1-.06-1.44c.11-.87.22-1.74.39-2.61l2.38.91a3,3,0,0,1,.82.42,1.12,1.12,0,0,0,.94.13,1.18,1.18,0,0,0,.86-.6.78.78,0,0,0,.14-.44,4.91,4.91,0,0,1,.15-1.25,15.62,15.62,0,0,0,.3-1.88,4.61,4.61,0,0,1,.15-.81.46.46,0,0,1,.43-.34,1.22,1.22,0,0,1,.27,0c.84.07,1.68.13,2.51.22a1.61,1.61,0,0,1,.75.2,1.4,1.4,0,0,0,1.22,0,.6.6,0,0,0,.25-.16,1.14,1.14,0,0,0,.39-1,1.45,1.45,0,0,1,0-.51,14.6,14.6,0,0,0,0-2.66c-.06-.58-.21-1.15,0-1.24l-1.33-1.75A1.8,1.8,0,0,0,434,256.26Z"/><path d="M428.92,249.51a1.54,1.54,0,0,0,.14.92,1.5,1.5,0,0,1,.06.6,7.81,7.81,0,0,1-.65,2.94.34.34,0,0,1-.24.16h-.36c-.59-.06-1.18-.13-1.78-.18a7.19,7.19,0,0,1-1.93-.26l-.08,0a1.07,1.07,0,0,0-.73.16,1.74,1.74,0,0,0-.61.87.37.37,0,0,0,0,.18c0,.19.06.39.11.58a2.25,2.25,0,0,1,0,.69c0,.45-.09.9-.15,1.34s-.14.66-.21,1a.37.37,0,0,1-.31.2l-.17,0-1.14-.4c-.83-.29-1.66-.59-2.5-.87-.66-.21-1.1.37-1.19.94,0,.12,0,.24,0,.36a11.12,11.12,0,0,1,0,1.86,8.83,8.83,0,0,0-.15,1.12,6.27,6.27,0,0,1-.09.86c0,.25-.07.34-.43.29a2.11,2.11,0,0,1-.26,0,18.58,18.58,0,0,1-2.77-.76,2.12,2.12,0,0,0-.56-.16.61.61,0,0,0-.56.22.94.94,0,0,0-.27.47,1.6,1.6,0,0,0,0,.92,1.85,1.85,0,0,1,.09.58,7.64,7.64,0,0,1-.49,2.81.33.33,0,0,1-.22.14l-.35,0c-.56-.09-1.12-.19-1.69-.26a6.58,6.58,0,0,1-1.84-.33l-.08,0a.94.94,0,0,0-.69.12,1.58,1.58,0,0,0-.54.81.32.32,0,0,0,0,.17c0,.19.08.38.13.57a2.16,2.16,0,0,1,.08.67c0,.43,0,.85-.09,1.28s-.1.63-.16.95c0,.09-.18.19-.28.17l-.16,0-1.09-.43c-.81-.32-1.61-.65-2.42-.95a.92.92,0,0,0-1,.28l1.33,1.76.11,0,2.61,1.11a3.4,3.4,0,0,1,.79.44,1.08,1.08,0,0,0,.9.17,1,1,0,0,0,.78-.55.61.61,0,0,0,.12-.42,4.38,4.38,0,0,1,.09-1.19,13.77,13.77,0,0,0,.2-1.8,4.19,4.19,0,0,1,.11-.78.39.39,0,0,1,.39-.3H409l2.38.31a1.79,1.79,0,0,1,.72.23,1.17,1.17,0,0,0,1.37-.08c.52-.45.24-.9.28-1.46a18.6,18.6,0,0,1,.13-2c.06-.35.09-.69.13-1a.84.84,0,0,1,.05-.17c0-.08.13-.18.19-.16a3.1,3.1,0,0,1,.42.08,12.71,12.71,0,0,0,1.84.35,2.5,2.5,0,0,1,.65.17,1.24,1.24,0,0,0,.85,0,4.4,4.4,0,0,0,.5-.21.63.63,0,0,0,.29-.53l-.06-.33a4,4,0,0,1-.06-1.43c.12-.87.23-1.74.39-2.61l2.38.91a2.65,2.65,0,0,1,.82.42,1.15,1.15,0,0,0,.94.13,1.18,1.18,0,0,0,.86-.61.83.83,0,0,0,.15-.44,4.15,4.15,0,0,1,.15-1.25,15,15,0,0,0,.29-1.88,6,6,0,0,1,.15-.81.47.47,0,0,1,.43-.34h.28l2.5.22a1.74,1.74,0,0,1,.75.2,1.39,1.39,0,0,0,1.23,0,.63.63,0,0,0,.24-.16,1.12,1.12,0,0,0,.39-1,1.51,1.51,0,0,1,0-.52,14.79,14.79,0,0,0,0-2.66c-.06-.57-.2-1.15,0-1.23l-1.33-1.76A2.05,2.05,0,0,0,428.92,249.51Z"/><path d="M439.26,263.16a1.53,1.53,0,0,0,.13.92,1.71,1.71,0,0,1,.07.6,8,8,0,0,1-.66,2.94.32.32,0,0,1-.23.16h-.37c-.59-.06-1.18-.14-1.78-.18a7.12,7.12,0,0,1-1.92-.26l-.09,0a1.08,1.08,0,0,0-.73.16,1.81,1.81,0,0,0-.61.87.33.33,0,0,0,0,.17,5.59,5.59,0,0,0,.11.59,2,2,0,0,1,.05.69c-.05.45-.08.89-.15,1.34s-.14.66-.21,1a.33.33,0,0,1-.31.19.86.86,0,0,1-.17,0l-1.13-.39c-.84-.29-1.67-.6-2.51-.87-.66-.21-1.1.37-1.19.94a2.19,2.19,0,0,0,0,.36,12.5,12.5,0,0,1,0,1.86,7.29,7.29,0,0,0-.14,1.12c0,.28,0,.57-.1.86s-.07.33-.43.29a1.22,1.22,0,0,1-.26,0,17.42,17.42,0,0,1-2.77-.75,2.12,2.12,0,0,0-.56-.16.62.62,0,0,0-.56.22.91.91,0,0,0-.27.46,1.72,1.72,0,0,0,0,.93,1.85,1.85,0,0,1,.09.58,7.39,7.39,0,0,1-.49,2.8.27.27,0,0,1-.22.14,1.94,1.94,0,0,1-.34,0c-.57-.08-1.13-.18-1.7-.25A6.71,6.71,0,0,1,418,280a.11.11,0,0,0-.08,0,.87.87,0,0,0-.68.12,1.56,1.56,0,0,0-.55.81.49.49,0,0,0,0,.17c0,.19.08.38.13.57a2.06,2.06,0,0,1,.08.66c0,.43,0,.86-.09,1.29s-.1.63-.15.94a.3.3,0,0,1-.29.18l-.16,0-1.09-.43c-.81-.31-1.6-.64-2.42-.94a.92.92,0,0,0-1,.28l1.33,1.75.11,0,2.61,1.11a2.91,2.91,0,0,1,.79.44,1.12,1.12,0,0,0,.9.17,1,1,0,0,0,.79-.55.75.75,0,0,0,.12-.42,4.34,4.34,0,0,1,.08-1.19,13.92,13.92,0,0,0,.2-1.81,7.13,7.13,0,0,1,.11-.77.39.39,0,0,1,.39-.31h.26l2.38.31a1.61,1.61,0,0,1,.72.23,1.19,1.19,0,0,0,1.37-.08c.53-.45.24-.91.28-1.46a18.61,18.61,0,0,1,.13-2c.06-.34.09-.68.13-1,0-.05,0-.11.05-.16s.13-.18.19-.17l.42.08a12.73,12.73,0,0,0,1.84.36,2.3,2.3,0,0,1,.65.17,1.33,1.33,0,0,0,.86,0c.17-.06.33-.14.5-.21a.64.64,0,0,0,.28-.53,1.91,1.91,0,0,0-.06-.33,4.34,4.34,0,0,1-.06-1.44c.12-.87.23-1.74.39-2.61l2.39.91a3,3,0,0,1,.82.42,1.12,1.12,0,0,0,.94.14,1.21,1.21,0,0,0,.85-.61.73.73,0,0,0,.15-.44,4.5,4.5,0,0,1,.15-1.25,15.62,15.62,0,0,0,.3-1.88,4.61,4.61,0,0,1,.15-.81.45.45,0,0,1,.42-.34,2.72,2.72,0,0,1,.28,0c.83.07,1.67.13,2.5.22a1.58,1.58,0,0,1,.75.2,1.39,1.39,0,0,0,1.23,0,.56.56,0,0,0,.24-.16,1.16,1.16,0,0,0,.4-1,1.51,1.51,0,0,1-.05-.52,15.58,15.58,0,0,0,0-2.66c-.06-.58-.21-1.15,0-1.24l-1.32-1.75A1.8,1.8,0,0,0,439.26,263.16Z"/><path d="M444.39,269.94a1.61,1.61,0,0,0,.13.92,1.5,1.5,0,0,1,.07.6,7.81,7.81,0,0,1-.65,2.94.34.34,0,0,1-.24.16h-.36c-.59-.06-1.18-.13-1.78-.18a7.19,7.19,0,0,1-1.93-.26l-.09,0a1,1,0,0,0-.72.17,1.68,1.68,0,0,0-.61.86.37.37,0,0,0,0,.18c0,.19.07.39.11.58a2,2,0,0,1,.06.69c-.05.45-.09.9-.15,1.34s-.14.66-.22,1a.34.34,0,0,1-.3.2l-.18,0-1.13-.4c-.83-.29-1.66-.59-2.51-.87-.65-.21-1.09.38-1.18.94,0,.12,0,.24,0,.36a11.22,11.22,0,0,1,0,1.87,7,7,0,0,0-.15,1.11,8.36,8.36,0,0,1-.09.86c-.05.25-.07.34-.43.29a2.11,2.11,0,0,1-.26,0,18.25,18.25,0,0,1-2.77-.76,2.67,2.67,0,0,0-.57-.16.63.63,0,0,0-.56.22,1,1,0,0,0-.26.47,1.6,1.6,0,0,0,0,.92,1.61,1.61,0,0,1,.1.58,7.45,7.45,0,0,1-.5,2.81.29.29,0,0,1-.21.14l-.35,0c-.56-.09-1.12-.19-1.69-.26a6.58,6.58,0,0,1-1.84-.33l-.09,0a.92.92,0,0,0-.68.12,1.52,1.52,0,0,0-.54.81.25.25,0,0,0,0,.17c0,.19.08.38.13.57a2.15,2.15,0,0,1,.07.67c0,.43,0,.86-.08,1.28s-.1.63-.16.95a.29.29,0,0,1-.28.17l-.17,0-1.09-.43c-.8-.32-1.6-.65-2.41-.95a.92.92,0,0,0-1,.28l1.33,1.76.11,0,2.6,1.11a3.27,3.27,0,0,1,.8.44,1.08,1.08,0,0,0,.9.17,1,1,0,0,0,.78-.55.71.71,0,0,0,.12-.42,4.38,4.38,0,0,1,.09-1.19,13.77,13.77,0,0,0,.2-1.8,4.19,4.19,0,0,1,.11-.78.39.39,0,0,1,.39-.3h.26c.79.1,1.59.2,2.38.32a1.64,1.64,0,0,1,.72.22,1.17,1.17,0,0,0,1.37-.08c.52-.45.24-.9.28-1.46a18.57,18.57,0,0,1,.12-2c.06-.35.09-.69.14-1,0-.06,0-.12,0-.17a.23.23,0,0,1,.2-.16,3.1,3.1,0,0,1,.42.08A12.21,12.21,0,0,0,432,285a2.5,2.5,0,0,1,.65.17,1.24,1.24,0,0,0,.85,0,4.4,4.4,0,0,0,.5-.21.65.65,0,0,0,.29-.53l-.06-.33a3.8,3.8,0,0,1-.06-1.43c.11-.87.22-1.74.39-2.61L437,281a2.89,2.89,0,0,1,.82.42,1.12,1.12,0,0,0,.94.13,1.2,1.2,0,0,0,.86-.61.83.83,0,0,0,.15-.44,4.49,4.49,0,0,1,.14-1.25,13.37,13.37,0,0,0,.3-1.88,6,6,0,0,1,.15-.81.47.47,0,0,1,.43-.34H441c.84.06,1.68.13,2.51.21a1.74,1.74,0,0,1,.75.2,1.39,1.39,0,0,0,1.23,0,.63.63,0,0,0,.24-.16,1.12,1.12,0,0,0,.39-1,1.8,1.8,0,0,1-.05-.52,14.59,14.59,0,0,0,0-2.66c-.06-.57-.21-1.15,0-1.23l-1.33-1.76A2.05,2.05,0,0,0,444.39,269.94Z"/><rect class="cls-1" x="407.25" y="254.43" width="35.06" height="34.91" transform="translate(-78 311.52) rotate(-37.13)"/><rect class="cls-1" x="428.32" y="282.26" width="35.06" height="34.91" transform="translate(-90.53 329.88) rotate(-37.13)"/><path class="cls-5" d="M455.1,284.09a1.61,1.61,0,0,0,.13.92,1.5,1.5,0,0,1,.07.6,7.81,7.81,0,0,1-.65,2.94.36.36,0,0,1-.24.15h-.36c-.59-.06-1.18-.14-1.78-.18a7.19,7.19,0,0,1-1.93-.26l-.09,0a1.05,1.05,0,0,0-.72.16,1.74,1.74,0,0,0-.61.87.49.49,0,0,0,0,.17c0,.2.07.4.11.59a2,2,0,0,1,.06.69c-.05.45-.09.89-.15,1.34s-.14.66-.22,1a.32.32,0,0,1-.3.19,1.13,1.13,0,0,1-.18,0l-1.13-.39c-.83-.29-1.66-.6-2.51-.87-.65-.21-1.09.37-1.18.94,0,.12,0,.24,0,.36a11.1,11.1,0,0,1,0,1.86,7,7,0,0,0-.15,1.12c0,.28-.05.57-.09.86s-.07.33-.43.29a1.09,1.09,0,0,1-.26,0,17.14,17.14,0,0,1-2.77-.75,2.19,2.19,0,0,0-.57-.16.63.63,0,0,0-.56.22,1,1,0,0,0-.26.46,1.63,1.63,0,0,0,0,.93,1.61,1.61,0,0,1,.1.58,7.4,7.4,0,0,1-.5,2.8.24.24,0,0,1-.21.14,2,2,0,0,1-.35,0c-.56-.08-1.12-.18-1.69-.25a6.59,6.59,0,0,1-1.84-.34h-.09a.88.88,0,0,0-.68.12,1.48,1.48,0,0,0-.54.81.25.25,0,0,0,0,.17c0,.19.08.38.13.57a2.06,2.06,0,0,1,.07.66c0,.43,0,.86-.08,1.29s-.1.63-.16.94a.28.28,0,0,1-.28.18l-.17,0-1.08-.43c-.81-.31-1.61-.64-2.42-.94a.92.92,0,0,0-1,.28l1.33,1.75.11,0,2.6,1.11a3,3,0,0,1,.8.44,1.12,1.12,0,0,0,.9.17,1,1,0,0,0,.78-.55.75.75,0,0,0,.12-.42,4.45,4.45,0,0,1,.09-1.2,13.77,13.77,0,0,0,.2-1.8,4.2,4.2,0,0,1,.11-.77A.39.39,0,0,1,435,303a1.15,1.15,0,0,1,.26,0l2.38.31a1.65,1.65,0,0,1,.72.23,1.19,1.19,0,0,0,1.37-.08c.52-.45.24-.91.28-1.46s0-1.31.12-2c.06-.34.09-.68.14-1,0,0,0-.11,0-.17s.13-.17.2-.16l.42.08a13.61,13.61,0,0,0,1.84.36,2.5,2.5,0,0,1,.65.17,1.24,1.24,0,0,0,.85,0,4.34,4.34,0,0,0,.5-.2.65.65,0,0,0,.29-.53l-.06-.33a3.87,3.87,0,0,1-.06-1.44c.11-.87.23-1.74.39-2.61l2.38.91a2.89,2.89,0,0,1,.82.42,1.16,1.16,0,0,0,.94.14,1.22,1.22,0,0,0,.86-.61.89.89,0,0,0,.15-.44,4.49,4.49,0,0,1,.14-1.25,13.85,13.85,0,0,0,.3-1.88,5.76,5.76,0,0,1,.15-.81.46.46,0,0,1,.43-.34,2.53,2.53,0,0,1,.27,0c.84.07,1.68.13,2.51.22a1.61,1.61,0,0,1,.75.2,1.39,1.39,0,0,0,1.23,0,.63.63,0,0,0,.24-.16,1.12,1.12,0,0,0,.39-1,1.8,1.8,0,0,1-.05-.52,14.6,14.6,0,0,0,0-2.66c-.06-.58-.21-1.15,0-1.24l-1.33-1.75A2,2,0,0,0,455.1,284.09Z"/><path class="cls-15" d="M450,277.35a1.42,1.42,0,0,0,.13.91,1.71,1.71,0,0,1,.07.6,8,8,0,0,1-.66,2.94.34.34,0,0,1-.23.16,2.26,2.26,0,0,1-.37,0c-.59-.06-1.18-.13-1.78-.18a6.87,6.87,0,0,1-1.93-.26h-.08a1,1,0,0,0-.73.16,1.68,1.68,0,0,0-.61.86.37.37,0,0,0,0,.18c0,.19.06.39.11.58a2,2,0,0,1,.05.69c-.05.45-.08.9-.15,1.35s-.14.65-.21,1a.35.35,0,0,1-.31.2.86.86,0,0,1-.17,0l-1.13-.4c-.84-.29-1.67-.59-2.51-.87-.66-.21-1.1.38-1.19.94a2.19,2.19,0,0,0,0,.36,12.62,12.62,0,0,1,0,1.87,7,7,0,0,0-.14,1.11,8.08,8.08,0,0,1-.1.86c0,.25-.07.34-.43.3a2.06,2.06,0,0,1-.26,0,18.58,18.58,0,0,1-2.77-.76,3.3,3.3,0,0,0-.56-.16.6.6,0,0,0-.56.23.87.87,0,0,0-.27.46,1.69,1.69,0,0,0,0,.92,1.85,1.85,0,0,1,.09.58,7.44,7.44,0,0,1-.49,2.81.33.33,0,0,1-.22.14l-.34,0c-.57-.08-1.13-.19-1.7-.25a7,7,0,0,1-1.84-.34l-.08,0a.91.91,0,0,0-.68.12,1.54,1.54,0,0,0-.55.81.47.47,0,0,0,0,.17c0,.19.08.38.13.57a2.16,2.16,0,0,1,.08.67c0,.43,0,.86-.09,1.29s-.1.62-.15.94a.3.3,0,0,1-.29.17.9.9,0,0,1-.16,0l-1.09-.43c-.81-.32-1.6-.65-2.42-1a.91.91,0,0,0-1,.29l1.33,1.75.11,0,2.61,1.11a3.2,3.2,0,0,1,.79.44,1.08,1.08,0,0,0,.9.17,1,1,0,0,0,.79-.55.7.7,0,0,0,.12-.41,4.41,4.41,0,0,1,.08-1.2,13.77,13.77,0,0,0,.2-1.8,5.23,5.23,0,0,1,.11-.78.39.39,0,0,1,.39-.3h.26c.8.1,1.59.2,2.38.32a1.6,1.6,0,0,1,.72.22,1.19,1.19,0,0,0,1.37-.07c.53-.46.24-.91.28-1.47a18.6,18.6,0,0,1,.13-2c.06-.34.09-.69.13-1a1.09,1.09,0,0,1,.05-.17c0-.08.13-.17.19-.16a3.1,3.1,0,0,1,.42.08,12.71,12.71,0,0,0,1.84.35,2.3,2.3,0,0,1,.65.17,1.24,1.24,0,0,0,.85,0,3.22,3.22,0,0,0,.51-.21.64.64,0,0,0,.28-.53c0-.11,0-.22-.06-.33a4,4,0,0,1-.06-1.43c.12-.87.23-1.74.39-2.61l2.39.91a3,3,0,0,1,.81.42,1.13,1.13,0,0,0,.94.13,1.18,1.18,0,0,0,.86-.61.83.83,0,0,0,.15-.44,4.15,4.15,0,0,1,.15-1.25,17.1,17.1,0,0,0,.3-1.88,6,6,0,0,1,.14-.81.49.49,0,0,1,.43-.34h.28c.83.06,1.67.13,2.5.21a1.71,1.71,0,0,1,.75.2,1.39,1.39,0,0,0,1.23,0,.56.56,0,0,0,.24-.16,1.16,1.16,0,0,0,.4-1,1.49,1.49,0,0,1-.05-.52,15.57,15.57,0,0,0,0-2.66c-.07-.57-.21-1.15,0-1.23l-1.33-1.75A1.85,1.85,0,0,0,450,277.35Z"/><path class="cls-15" d="M460.33,291a1.53,1.53,0,0,0,.13.92,1.71,1.71,0,0,1,.07.6,8.21,8.21,0,0,1-.65,2.94.36.36,0,0,1-.24.16h-.36l-1.78-.18a7.14,7.14,0,0,1-1.93-.26l-.09,0a1.09,1.09,0,0,0-.73.16,1.88,1.88,0,0,0-.61.87.37.37,0,0,0,0,.18c0,.19.07.39.11.58a2,2,0,0,1,.05.69c-.05.45-.08.89-.15,1.34s-.14.66-.21,1a.36.36,0,0,1-.31.2l-.17,0-1.13-.4c-.84-.29-1.66-.6-2.51-.87-.66-.21-1.1.37-1.19.94,0,.12,0,.24,0,.36a11.27,11.27,0,0,1,0,1.86,7.29,7.29,0,0,0-.14,1.12,8.39,8.39,0,0,1-.1.86c0,.25-.06.34-.43.29a2.11,2.11,0,0,1-.25,0,18.25,18.25,0,0,1-2.77-.76,2.31,2.31,0,0,0-.57-.16.63.63,0,0,0-.56.22.94.94,0,0,0-.27.47,1.69,1.69,0,0,0,0,.92,1.6,1.6,0,0,1,.09.58,7.25,7.25,0,0,1-.49,2.81.31.31,0,0,1-.22.14l-.34,0c-.57-.09-1.13-.19-1.7-.26a6.71,6.71,0,0,1-1.84-.33l-.08,0a.91.91,0,0,0-.68.12,1.52,1.52,0,0,0-.54.81.33.33,0,0,0,0,.17c0,.19.08.38.13.57a2.12,2.12,0,0,1,.08.67c0,.43,0,.85-.08,1.28s-.11.63-.16.95a.3.3,0,0,1-.28.17l-.17,0-1.09-.43c-.8-.31-1.6-.64-2.42-.94a.92.92,0,0,0-1,.28l1.33,1.76a.35.35,0,0,1,.11,0l2.61,1.11a3.2,3.2,0,0,1,.79.44,1.08,1.08,0,0,0,.9.17,1,1,0,0,0,.79-.55.75.75,0,0,0,.12-.42,4.37,4.37,0,0,1,.08-1.19,15.67,15.67,0,0,0,.21-1.81,5.24,5.24,0,0,1,.1-.77.41.41,0,0,1,.39-.31h.26l2.39.31a1.75,1.75,0,0,1,.71.23,1.19,1.19,0,0,0,1.38-.08c.52-.45.23-.9.27-1.46a19,19,0,0,1,.13-2c.06-.34.09-.68.14-1a.85.85,0,0,1,0-.17c0-.08.13-.18.19-.16l.42.07A12.73,12.73,0,0,0,448,306a2.3,2.3,0,0,1,.65.17,1.27,1.27,0,0,0,.86,0c.17-.06.33-.14.5-.21a.62.62,0,0,0,.28-.53,1.91,1.91,0,0,0-.06-.33,4.27,4.27,0,0,1-.06-1.43c.12-.87.23-1.75.39-2.61l2.39.91a2.77,2.77,0,0,1,.82.42,1.15,1.15,0,0,0,.94.13,1.24,1.24,0,0,0,.86-.61.76.76,0,0,0,.14-.44,4.91,4.91,0,0,1,.15-1.25,15.62,15.62,0,0,0,.3-1.88,4.79,4.79,0,0,1,.15-.81.46.46,0,0,1,.42-.34H457l2.5.22a1.67,1.67,0,0,1,.75.2,1.39,1.39,0,0,0,1.23,0,.67.67,0,0,0,.25-.16,1.18,1.18,0,0,0,.39-1A1.51,1.51,0,0,1,462,296a15.58,15.58,0,0,0,0-2.66c-.06-.57-.21-1.15,0-1.23l-1.32-1.76A1.88,1.88,0,0,0,460.33,291Z"/><rect class="cls-1" x="449.39" y="310.09" width="35.06" height="34.91" transform="translate(-103.06 348.24) rotate(-37.13)"/><path d="M476.17,311.92a1.54,1.54,0,0,0,.14.92,1.5,1.5,0,0,1,.06.6,7.81,7.81,0,0,1-.65,2.94.34.34,0,0,1-.24.16h-.36c-.59-.06-1.18-.14-1.78-.18a7.19,7.19,0,0,1-1.93-.26l-.08,0a1.07,1.07,0,0,0-.73.16,1.74,1.74,0,0,0-.61.87.37.37,0,0,0,0,.18c0,.19.06.39.11.58a2.25,2.25,0,0,1,0,.69c0,.45-.09.89-.15,1.34s-.14.66-.21,1a.37.37,0,0,1-.31.2l-.17,0-1.14-.4c-.83-.29-1.66-.6-2.5-.87-.66-.21-1.1.37-1.19.94,0,.12,0,.24,0,.36a11.12,11.12,0,0,1,0,1.86,8.83,8.83,0,0,0-.15,1.12,6.44,6.44,0,0,1-.09.86c0,.25-.07.34-.43.29a2.11,2.11,0,0,1-.26,0,18.58,18.58,0,0,1-2.77-.76,2.12,2.12,0,0,0-.56-.16.64.64,0,0,0-.57.22,1,1,0,0,0-.26.46,1.63,1.63,0,0,0,0,.93,1.85,1.85,0,0,1,.09.58,7.4,7.4,0,0,1-.5,2.8.27.27,0,0,1-.21.15l-.35,0c-.56-.08-1.12-.18-1.69-.25a6.58,6.58,0,0,1-1.84-.33l-.09,0a.92.92,0,0,0-.68.12,1.48,1.48,0,0,0-.54.81.33.33,0,0,0,0,.17c0,.19.08.38.13.57a2.41,2.41,0,0,1,.08.67c0,.42,0,.85-.09,1.28s-.1.63-.16.94a.27.27,0,0,1-.28.18l-.16,0-1.09-.43c-.81-.31-1.61-.64-2.42-.94a.92.92,0,0,0-1,.28l1.33,1.75.11,0,2.61,1.11a3.4,3.4,0,0,1,.79.44,1.08,1.08,0,0,0,.9.17,1,1,0,0,0,.78-.55.68.68,0,0,0,.12-.42,4.38,4.38,0,0,1,.09-1.19,13.73,13.73,0,0,0,.2-1.81,4.2,4.2,0,0,1,.11-.77.4.4,0,0,1,.39-.31h.26l2.38.31a1.65,1.65,0,0,1,.72.23,1.19,1.19,0,0,0,1.37-.08c.52-.45.24-.9.28-1.46s0-1.31.12-2c.07-.34.1-.68.14-1a1,1,0,0,1,.05-.16c0-.08.13-.18.19-.16l.42.07a12.47,12.47,0,0,0,1.84.36,2.5,2.5,0,0,1,.65.17,1.3,1.3,0,0,0,.85,0c.17-.06.34-.14.5-.21a.63.63,0,0,0,.29-.53l-.06-.33a4,4,0,0,1-.06-1.43c.11-.88.23-1.75.39-2.61l2.38.9a3.17,3.17,0,0,1,.82.42,1.12,1.12,0,0,0,.94.14,1.2,1.2,0,0,0,.86-.61.86.86,0,0,0,.15-.44,4.15,4.15,0,0,1,.15-1.25,15.57,15.57,0,0,0,.29-1.88,5.76,5.76,0,0,1,.15-.81.47.47,0,0,1,.43-.34h.28l2.5.22a1.61,1.61,0,0,1,.75.2,1.39,1.39,0,0,0,1.23,0,.63.63,0,0,0,.24-.16,1.12,1.12,0,0,0,.39-1,1.51,1.51,0,0,1,0-.52,14.79,14.79,0,0,0,0-2.66c-.06-.58-.2-1.15,0-1.24l-1.33-1.75A2,2,0,0,0,476.17,311.92Z"/><path d="M471.07,305.18a1.53,1.53,0,0,0,.13.92,1.62,1.62,0,0,1,.07.59,8,8,0,0,1-.66,2.94.32.32,0,0,1-.23.16H470c-.59-.06-1.18-.14-1.78-.19a6.75,6.75,0,0,1-1.92-.26h-.09a1,1,0,0,0-.73.16,1.76,1.76,0,0,0-.61.87.33.33,0,0,0,0,.17c0,.2.06.39.11.59a1.92,1.92,0,0,1,.05.68c-.05.45-.08.9-.15,1.35s-.14.65-.21,1a.34.34,0,0,1-.31.2.86.86,0,0,1-.17,0l-1.13-.39c-.84-.3-1.67-.6-2.51-.87-.66-.21-1.1.37-1.19.94a2.16,2.16,0,0,0,0,.35,12.62,12.62,0,0,1,0,1.87,7,7,0,0,0-.14,1.11,8.08,8.08,0,0,1-.1.86c0,.25-.07.34-.43.3l-.26,0a18.55,18.55,0,0,1-2.77-.75,2.6,2.6,0,0,0-.56-.17.63.63,0,0,0-.56.23.87.87,0,0,0-.27.46,1.69,1.69,0,0,0,0,.92,1.9,1.9,0,0,1,.09.58,7.44,7.44,0,0,1-.49,2.81.33.33,0,0,1-.22.14,1.94,1.94,0,0,1-.34,0c-.57-.08-1.13-.18-1.7-.25a7,7,0,0,1-1.84-.34l-.08,0a.92.92,0,0,0-.68.13,1.52,1.52,0,0,0-.55.81.43.43,0,0,0,0,.16c0,.19.08.39.13.57a2.16,2.16,0,0,1,.08.67c0,.43,0,.86-.09,1.29s-.1.63-.15.94a.28.28,0,0,1-.29.17.9.9,0,0,1-.16,0l-1.09-.43c-.81-.32-1.6-.65-2.42-.95a.92.92,0,0,0-1,.29l1.33,1.75.11,0,2.61,1.11a3.2,3.2,0,0,1,.79.44,1.08,1.08,0,0,0,.9.17,1,1,0,0,0,.79-.55.7.7,0,0,0,.12-.41,4.41,4.41,0,0,1,.08-1.2,13.77,13.77,0,0,0,.2-1.8,6.49,6.49,0,0,1,.11-.77.39.39,0,0,1,.39-.31h.26c.8.1,1.59.2,2.38.32a1.6,1.6,0,0,1,.72.22,1.19,1.19,0,0,0,1.37-.07c.53-.45.24-.91.28-1.46a18.61,18.61,0,0,1,.13-2c.06-.34.09-.69.13-1,0-.06,0-.11.05-.17s.13-.17.19-.16l.42.08a12.71,12.71,0,0,0,1.84.35,2.32,2.32,0,0,1,.65.18,1.33,1.33,0,0,0,.86,0,3.55,3.55,0,0,0,.5-.21.64.64,0,0,0,.28-.52,1.61,1.61,0,0,0-.06-.33,4.34,4.34,0,0,1-.06-1.44c.12-.87.23-1.74.39-2.61l2.39.91a2.83,2.83,0,0,1,.81.42,1.15,1.15,0,0,0,.95.13,1.18,1.18,0,0,0,.85-.61.69.69,0,0,0,.15-.44,4.43,4.43,0,0,1,.15-1.24,15.46,15.46,0,0,0,.3-1.89,4.79,4.79,0,0,1,.15-.81.44.44,0,0,1,.42-.33,1.31,1.31,0,0,1,.28,0c.83.07,1.67.13,2.5.21a1.71,1.71,0,0,1,.75.2,1.39,1.39,0,0,0,1.23,0,.49.49,0,0,0,.24-.16,1.15,1.15,0,0,0,.4-1,1.45,1.45,0,0,1-.05-.51,15.59,15.59,0,0,0,0-2.66c-.06-.58-.21-1.16,0-1.24l-1.32-1.75A1.72,1.72,0,0,0,471.07,305.18Z"/><path d="M481.4,318.82a1.61,1.61,0,0,0,.13.92,1.71,1.71,0,0,1,.07.6,8,8,0,0,1-.65,2.94.34.34,0,0,1-.24.16h-.36l-1.78-.18a7.14,7.14,0,0,1-1.93-.26l-.09,0a1,1,0,0,0-.72.17,1.76,1.76,0,0,0-.62.86.37.37,0,0,0,0,.18c0,.19.07.39.11.58a2,2,0,0,1,.05.69c-.05.45-.08.9-.15,1.34s-.13.66-.21,1a.34.34,0,0,1-.31.2,1,1,0,0,1-.17,0l-1.13-.4c-.84-.29-1.66-.59-2.51-.87-.66-.21-1.09.38-1.18.94a2.2,2.2,0,0,0,0,.36,11.38,11.38,0,0,1,0,1.87,7,7,0,0,0-.14,1.11,8.39,8.39,0,0,1-.1.86c0,.25-.06.34-.43.29a2.11,2.11,0,0,1-.25,0,18.25,18.25,0,0,1-2.77-.76,2.67,2.67,0,0,0-.57-.16.63.63,0,0,0-.56.22.94.94,0,0,0-.27.47,1.69,1.69,0,0,0,0,.92,1.6,1.6,0,0,1,.09.58,7.25,7.25,0,0,1-.49,2.81.29.29,0,0,1-.22.14l-.34,0c-.57-.09-1.13-.19-1.7-.26a6.71,6.71,0,0,1-1.84-.33l-.08,0a.91.91,0,0,0-.68.12,1.52,1.52,0,0,0-.54.81.33.33,0,0,0,0,.17c0,.19.08.38.13.57a1.9,1.9,0,0,1,.08.67c0,.43,0,.86-.08,1.28s-.1.63-.16.95a.3.3,0,0,1-.28.17.86.86,0,0,1-.17,0l-1.09-.43c-.8-.32-1.6-.65-2.41-.95a.91.91,0,0,0-1,.28l1.32,1.76.11,0,2.61,1.11a3.46,3.46,0,0,1,.8.44,1.06,1.06,0,0,0,.89.17,1,1,0,0,0,.79-.55.71.71,0,0,0,.12-.42,4,4,0,0,1,.09-1.19,15.73,15.73,0,0,0,.2-1.8,5.2,5.2,0,0,1,.1-.78.39.39,0,0,1,.39-.3h.26c.8.1,1.6.2,2.39.32a1.68,1.68,0,0,1,.72.22,1.17,1.17,0,0,0,1.37-.08c.52-.45.24-.9.28-1.46a16.24,16.24,0,0,1,.12-2c.06-.35.09-.69.14-1a.85.85,0,0,1,0-.17.23.23,0,0,1,.2-.16,2.7,2.7,0,0,1,.41.08,12.59,12.59,0,0,0,1.85.35,2.5,2.5,0,0,1,.65.17,1.24,1.24,0,0,0,.85,0,5.32,5.32,0,0,0,.5-.21.62.62,0,0,0,.28-.53,1.91,1.91,0,0,0-.06-.33,4.27,4.27,0,0,1-.06-1.43c.12-.87.23-1.74.39-2.61l2.39.91a3,3,0,0,1,.82.42,1.12,1.12,0,0,0,.94.13,1.2,1.2,0,0,0,.86-.61.74.74,0,0,0,.14-.44,4.91,4.91,0,0,1,.15-1.25,15,15,0,0,0,.3-1.88,4.79,4.79,0,0,1,.15-.81.47.47,0,0,1,.43-.34H478c.84.06,1.67.13,2.51.21a1.66,1.66,0,0,1,.74.2,1.39,1.39,0,0,0,1.23,0,.67.67,0,0,0,.25-.16,1.15,1.15,0,0,0,.39-1,1.51,1.51,0,0,1,0-.52,14.59,14.59,0,0,0,0-2.66c-.06-.57-.21-1.15,0-1.23l-1.33-1.76A1.88,1.88,0,0,0,481.4,318.82Z"/><path d="M486.54,325.61a1.46,1.46,0,0,0,.13.92,1.62,1.62,0,0,1,.07.59,7.93,7.93,0,0,1-.66,2.94.34.34,0,0,1-.23.16h-.37c-.59-.06-1.18-.14-1.78-.19a6.52,6.52,0,0,1-1.93-.26h-.08a1,1,0,0,0-.73.16,1.7,1.7,0,0,0-.61.87.33.33,0,0,0,0,.17c0,.2.06.39.11.59a2.23,2.23,0,0,1,.05.69c-.05.44-.09.89-.15,1.34s-.14.66-.21,1a.34.34,0,0,1-.31.2.86.86,0,0,1-.17,0l-1.13-.39c-.84-.3-1.67-.6-2.51-.87-.66-.21-1.1.37-1.19.94a2.16,2.16,0,0,0,0,.35,12.62,12.62,0,0,1,0,1.87,7,7,0,0,0-.14,1.11,8.08,8.08,0,0,1-.1.86c0,.25-.07.34-.43.3a2.06,2.06,0,0,1-.26,0,18.55,18.55,0,0,1-2.77-.75,2.6,2.6,0,0,0-.56-.17.62.62,0,0,0-.56.23.87.87,0,0,0-.27.46,1.63,1.63,0,0,0,0,.93,1.79,1.79,0,0,1,.09.57,7.44,7.44,0,0,1-.49,2.81.33.33,0,0,1-.22.14,2.06,2.06,0,0,1-.35,0c-.56-.08-1.12-.18-1.69-.25a7,7,0,0,1-1.84-.34l-.08,0a.94.94,0,0,0-.69.13,1.5,1.5,0,0,0-.54.81.43.43,0,0,0,0,.16c0,.2.08.39.13.57a2.16,2.16,0,0,1,.08.67c0,.43,0,.86-.09,1.29s-.1.63-.16.94a.27.27,0,0,1-.28.18l-.16,0-1.09-.43c-.81-.32-1.61-.65-2.42-.95a.92.92,0,0,0-1,.29l1.33,1.75.11,0L463,349a2.67,2.67,0,0,1,.79.44,1.12,1.12,0,0,0,.9.16,1,1,0,0,0,.79-.55.62.62,0,0,0,.11-.41,4.42,4.42,0,0,1,.09-1.2,13.77,13.77,0,0,0,.2-1.8,5.1,5.1,0,0,1,.11-.77.39.39,0,0,1,.39-.31,2.25,2.25,0,0,1,.26,0c.79.1,1.59.2,2.38.32a1.78,1.78,0,0,1,.72.22,1.19,1.19,0,0,0,1.37-.07c.52-.45.24-.91.28-1.46a18.61,18.61,0,0,1,.13-2c.06-.34.09-.69.13-1a1.09,1.09,0,0,1,0-.17c0-.08.13-.17.19-.16l.42.08a12.71,12.71,0,0,0,1.84.35,2.41,2.41,0,0,1,.65.18,1.24,1.24,0,0,0,.85,0,3.66,3.66,0,0,0,.51-.21.64.64,0,0,0,.28-.52c0-.11,0-.22-.06-.33a4.09,4.09,0,0,1-.06-1.44c.12-.87.23-1.74.39-2.61l2.39.91a3,3,0,0,1,.81.42,1.12,1.12,0,0,0,.94.13,1.18,1.18,0,0,0,.86-.61.83.83,0,0,0,.15-.44,4.13,4.13,0,0,1,.15-1.24,17.67,17.67,0,0,0,.3-1.89,5.84,5.84,0,0,1,.14-.8.46.46,0,0,1,.43-.34,1.31,1.31,0,0,1,.28,0c.83.07,1.67.13,2.5.21a1.71,1.71,0,0,1,.75.2,1.43,1.43,0,0,0,1.23,0,.66.66,0,0,0,.24-.17,1.11,1.11,0,0,0,.39-1,1.73,1.73,0,0,1,0-.51,15.59,15.59,0,0,0,0-2.66c-.07-.58-.21-1.16,0-1.24l-1.33-1.75A1.7,1.7,0,0,0,486.54,325.61Z"/><rect class="cls-1" x="449.39" y="310.09" width="35.06" height="34.91" transform="translate(-103.06 348.24) rotate(-37.13)"/><rect class="cls-1" x="379.3" y="275.59" width="35.06" height="34.91" transform="translate(-96.44 298.94) rotate(-37.13)"/><path d="M406.08,277.42a1.61,1.61,0,0,0,.13.92,1.65,1.65,0,0,1,.07.59,7.81,7.81,0,0,1-.65,2.95.36.36,0,0,1-.24.15c-.12,0-.24,0-.36,0-.6-.06-1.18-.14-1.78-.18a7.14,7.14,0,0,1-1.93-.26l-.09,0a1.05,1.05,0,0,0-.72.16,1.83,1.83,0,0,0-.62.87.33.33,0,0,0,0,.17c0,.2.07.4.11.59a2,2,0,0,1,.05.69c0,.45-.08.89-.15,1.34a8.73,8.73,0,0,1-.21,1,.32.32,0,0,1-.3.19l-.18,0-1.13-.39c-.83-.29-1.66-.6-2.51-.87-.66-.21-1.09.37-1.18.94a2.2,2.2,0,0,0,0,.36,11.1,11.1,0,0,1,0,1.86,6,6,0,0,0-.15,1.12c0,.28-.05.57-.1.86s-.06.33-.42.29a1.09,1.09,0,0,1-.26,0,17.14,17.14,0,0,1-2.77-.75,2.19,2.19,0,0,0-.57-.16.63.63,0,0,0-.56.22.85.85,0,0,0-.26.46,1.63,1.63,0,0,0,0,.93,1.39,1.39,0,0,1,.09.57,7.22,7.22,0,0,1-.49,2.81.25.25,0,0,1-.22.14,1.94,1.94,0,0,1-.34,0c-.56-.08-1.13-.18-1.7-.25a6.58,6.58,0,0,1-1.83-.34h-.09a.87.87,0,0,0-.68.12,1.48,1.48,0,0,0-.54.81.33.33,0,0,0,0,.17c0,.19.08.38.13.57a1.82,1.82,0,0,1,.08.66c0,.43,0,.86-.08,1.29s-.1.63-.16.94a.29.29,0,0,1-.28.18l-.17,0-1.09-.43c-.8-.31-1.6-.64-2.41-.94a.91.91,0,0,0-1,.28l1.32,1.75.11,0,2.61,1.11a3,3,0,0,1,.8.44,1.1,1.1,0,0,0,.89.17,1,1,0,0,0,.79-.55.75.75,0,0,0,.12-.42,4.08,4.08,0,0,1,.09-1.2,13.77,13.77,0,0,0,.2-1.8,5.24,5.24,0,0,1,.1-.77.4.4,0,0,1,.39-.31,1.22,1.22,0,0,1,.27,0l2.38.31a1.65,1.65,0,0,1,.72.23,1.19,1.19,0,0,0,1.37-.08c.52-.45.24-.91.28-1.46a16.28,16.28,0,0,1,.12-2c.06-.34.09-.68.14-1,0-.05,0-.11,0-.17s.13-.17.2-.16l.42.08a13.61,13.61,0,0,0,1.84.36,2.5,2.5,0,0,1,.65.17,1.24,1.24,0,0,0,.85,0,4.34,4.34,0,0,0,.5-.2.65.65,0,0,0,.29-.53l-.06-.33a3.87,3.87,0,0,1-.06-1.44c.11-.87.22-1.74.39-2.61l2.38.91a3,3,0,0,1,.82.42,1.16,1.16,0,0,0,.94.14,1.22,1.22,0,0,0,.86-.61.78.78,0,0,0,.14-.44,4.91,4.91,0,0,1,.15-1.25,15.62,15.62,0,0,0,.3-1.88A4.61,4.61,0,0,1,402,284a.46.46,0,0,1,.43-.34,2.44,2.44,0,0,1,.27,0c.84.07,1.68.13,2.51.22a1.61,1.61,0,0,1,.75.2,1.37,1.37,0,0,0,1.22,0,.6.6,0,0,0,.25-.16,1.12,1.12,0,0,0,.39-1,1.51,1.51,0,0,1-.05-.52,14.6,14.6,0,0,0,0-2.66c-.06-.58-.21-1.15,0-1.24l-1.33-1.75A1.8,1.8,0,0,0,406.08,277.42Z"/><path d="M401,270.68a1.51,1.51,0,0,0,.14.91,1.5,1.5,0,0,1,.06.6,7.81,7.81,0,0,1-.65,2.94.34.34,0,0,1-.24.16,2.17,2.17,0,0,1-.36,0c-.59-.06-1.18-.13-1.78-.18a7.19,7.19,0,0,1-1.93-.26h-.08a1,1,0,0,0-.73.16,1.68,1.68,0,0,0-.61.86.37.37,0,0,0,0,.18c0,.19.06.39.11.58a2.27,2.27,0,0,1,.05.69c-.05.45-.09.9-.15,1.35s-.14.65-.21,1a.35.35,0,0,1-.31.2.86.86,0,0,1-.17,0l-1.14-.4c-.83-.29-1.66-.59-2.5-.87-.66-.21-1.1.38-1.19.94,0,.12,0,.24,0,.36a11.22,11.22,0,0,1,0,1.87,8.45,8.45,0,0,0-.15,1.11,6.11,6.11,0,0,1-.09.86c0,.25-.07.34-.43.3-.09,0-.18,0-.26,0a18.58,18.58,0,0,1-2.77-.76A3.3,3.3,0,0,0,385,283a.62.62,0,0,0-.57.23.92.92,0,0,0-.26.46,1.6,1.6,0,0,0,0,.92,1.85,1.85,0,0,1,.09.58,7.45,7.45,0,0,1-.5,2.81.29.29,0,0,1-.21.14l-.35,0c-.56-.09-1.12-.19-1.69-.25a7,7,0,0,1-1.84-.34l-.09,0a.92.92,0,0,0-.68.12,1.52,1.52,0,0,0-.54.81.32.32,0,0,0,0,.17c0,.19.08.38.13.57a2.51,2.51,0,0,1,.08.67c0,.43,0,.86-.09,1.29s-.1.62-.16.94c0,.09-.18.19-.28.17a.9.9,0,0,1-.16,0l-1.09-.43c-.81-.32-1.61-.65-2.42-.95a.92.92,0,0,0-1,.28l1.33,1.76.11,0,2.61,1.11a3.4,3.4,0,0,1,.79.44,1.08,1.08,0,0,0,.9.17,1,1,0,0,0,.78-.55.63.63,0,0,0,.12-.41,4.42,4.42,0,0,1,.09-1.2,13.77,13.77,0,0,0,.2-1.8,4.19,4.19,0,0,1,.11-.78.39.39,0,0,1,.39-.3h.26c.79.1,1.59.2,2.38.32a1.64,1.64,0,0,1,.72.22,1.17,1.17,0,0,0,1.37-.08c.52-.45.24-.9.28-1.46s0-1.3.12-2c.07-.35.1-.69.14-1a.84.84,0,0,1,0-.17.22.22,0,0,1,.19-.16,3.1,3.1,0,0,1,.42.08,12.45,12.45,0,0,0,1.84.35,2.5,2.5,0,0,1,.65.17,1.24,1.24,0,0,0,.85,0,4.4,4.4,0,0,0,.5-.21.63.63,0,0,0,.29-.53l-.06-.33a4,4,0,0,1-.06-1.43c.11-.87.23-1.74.39-2.61l2.38.91a2.89,2.89,0,0,1,.82.42,1.12,1.12,0,0,0,.94.13,1.18,1.18,0,0,0,.86-.61.83.83,0,0,0,.15-.44,4.15,4.15,0,0,1,.15-1.25,15,15,0,0,0,.29-1.88,6,6,0,0,1,.15-.81.47.47,0,0,1,.43-.34h.28c.83.06,1.67.13,2.5.21a1.74,1.74,0,0,1,.75.2,1.39,1.39,0,0,0,1.23,0,.63.63,0,0,0,.24-.16,1.12,1.12,0,0,0,.39-1,1.49,1.49,0,0,1,0-.52,14.79,14.79,0,0,0,0-2.66c-.06-.57-.2-1.15,0-1.23L401.32,270A2,2,0,0,0,401,270.68Z"/><rect class="cls-1" x="379.3" y="275.59" width="35.06" height="34.91" transform="translate(-96.44 298.94) rotate(-37.13)"/><path class="cls-5" d="M427.15,305.25a1.61,1.61,0,0,0,.13.92,1.5,1.5,0,0,1,.07.6,7.81,7.81,0,0,1-.65,2.94.34.34,0,0,1-.24.16h-.36c-.59-.06-1.18-.14-1.78-.18a7.19,7.19,0,0,1-1.93-.26l-.09,0a1.05,1.05,0,0,0-.72.16,1.74,1.74,0,0,0-.61.87.37.37,0,0,0,0,.18c0,.19.07.39.11.58a2,2,0,0,1,.06.69c-.05.45-.09.89-.15,1.34s-.14.66-.22,1a.32.32,0,0,1-.3.19l-.18,0-1.13-.4c-.83-.29-1.66-.6-2.51-.87-.65-.21-1.09.37-1.18.94,0,.12,0,.24,0,.36a11.12,11.12,0,0,1,0,1.86,6.27,6.27,0,0,0-.15,1.12c0,.28-.05.57-.09.86s-.07.34-.43.29a2.11,2.11,0,0,1-.26,0,18.25,18.25,0,0,1-2.77-.76,2.19,2.19,0,0,0-.57-.16.63.63,0,0,0-.56.22,1,1,0,0,0-.26.46,1.63,1.63,0,0,0,0,.93,1.61,1.61,0,0,1,.1.58,7.4,7.4,0,0,1-.5,2.8.27.27,0,0,1-.21.15c-.12,0-.24,0-.35,0-.56-.08-1.13-.18-1.69-.25a6.58,6.58,0,0,1-1.84-.33l-.09,0a.92.92,0,0,0-.68.12,1.48,1.48,0,0,0-.54.81.25.25,0,0,0,0,.17c0,.19.08.38.13.57a2.09,2.09,0,0,1,.07.67c0,.42,0,.85-.08,1.28s-.1.63-.16.94a.28.28,0,0,1-.28.18l-.17,0-1.09-.43c-.8-.31-1.6-.64-2.41-.94a.91.91,0,0,0-1,.28l1.33,1.75.11,0,2.6,1.11a3.27,3.27,0,0,1,.8.44,1.12,1.12,0,0,0,.9.17,1,1,0,0,0,.78-.55.75.75,0,0,0,.12-.42,4.38,4.38,0,0,1,.09-1.19,13.73,13.73,0,0,0,.2-1.81,4.2,4.2,0,0,1,.11-.77.4.4,0,0,1,.39-.31h.26l2.38.31a1.65,1.65,0,0,1,.72.23,1.19,1.19,0,0,0,1.37-.08c.52-.45.24-.9.28-1.46a18.76,18.76,0,0,1,.12-2c.06-.34.09-.68.14-1,0-.05,0-.11,0-.16s.13-.18.2-.16l.42.07a12.22,12.22,0,0,0,1.84.36,2.5,2.5,0,0,1,.65.17,1.3,1.3,0,0,0,.85,0c.17-.06.34-.14.5-.21a.65.65,0,0,0,.29-.53l-.06-.33A3.86,3.86,0,0,1,417,318c.11-.87.22-1.74.39-2.6l2.38.9a3.17,3.17,0,0,1,.82.42,1.12,1.12,0,0,0,.94.14,1.22,1.22,0,0,0,.86-.61.89.89,0,0,0,.15-.44,4.49,4.49,0,0,1,.14-1.25,13.85,13.85,0,0,0,.3-1.88,5.76,5.76,0,0,1,.15-.81.46.46,0,0,1,.43-.34h.27l2.51.22a1.61,1.61,0,0,1,.75.2,1.39,1.39,0,0,0,1.23,0,.63.63,0,0,0,.24-.16,1.12,1.12,0,0,0,.39-1,1.8,1.8,0,0,1,0-.52,14.6,14.6,0,0,0,0-2.66c-.06-.58-.21-1.15,0-1.24l-1.33-1.75A2,2,0,0,0,427.15,305.25Z"/><path class="cls-15" d="M422.05,298.51a1.46,1.46,0,0,0,.13.92,1.62,1.62,0,0,1,.07.59,8,8,0,0,1-.66,2.94.34.34,0,0,1-.23.16H421c-.59-.06-1.18-.14-1.78-.19a6.87,6.87,0,0,1-1.93-.26h-.08a1,1,0,0,0-.73.16,1.7,1.7,0,0,0-.61.87.33.33,0,0,0,0,.17,5.4,5.4,0,0,0,.11.58,2,2,0,0,1,0,.69c0,.45-.08.9-.15,1.35s-.14.65-.21,1a.35.35,0,0,1-.31.2.86.86,0,0,1-.17,0l-1.13-.4c-.84-.29-1.67-.59-2.51-.86-.66-.22-1.1.37-1.19.94a2.16,2.16,0,0,0,0,.35,12.62,12.62,0,0,1,0,1.87,7,7,0,0,0-.14,1.11,8.08,8.08,0,0,1-.1.86c0,.25-.07.34-.43.3a2.06,2.06,0,0,1-.26,0,18.55,18.55,0,0,1-2.77-.75,2.6,2.6,0,0,0-.56-.17.62.62,0,0,0-.56.23.87.87,0,0,0-.27.46,1.6,1.6,0,0,0,0,.92,1.9,1.9,0,0,1,.09.58,7.44,7.44,0,0,1-.49,2.81.33.33,0,0,1-.22.14c-.12,0-.23,0-.34,0-.57-.08-1.13-.18-1.7-.25a7,7,0,0,1-1.84-.34l-.08,0a.94.94,0,0,0-.69.13,1.5,1.5,0,0,0-.54.81.43.43,0,0,0,0,.16c0,.19.08.39.13.57a2.16,2.16,0,0,1,.08.67c0,.43,0,.86-.09,1.29s-.1.62-.16.94a.26.26,0,0,1-.28.17.9.9,0,0,1-.16,0l-1.09-.43c-.81-.32-1.61-.65-2.42-.95a.92.92,0,0,0-1,.29l1.33,1.75.11,0,2.61,1.11a3.2,3.2,0,0,1,.79.44,1.08,1.08,0,0,0,.9.17,1,1,0,0,0,.79-.55.62.62,0,0,0,.11-.41,4.86,4.86,0,0,1,.09-1.2,13.77,13.77,0,0,0,.2-1.8,4.92,4.92,0,0,1,.11-.77.39.39,0,0,1,.39-.31h.26c.8.1,1.59.2,2.38.32a1.64,1.64,0,0,1,.72.22,1.19,1.19,0,0,0,1.37-.07c.52-.46.24-.91.28-1.46a18.61,18.61,0,0,1,.13-2c.06-.34.09-.69.13-1a1.09,1.09,0,0,1,.05-.17c0-.08.13-.17.19-.16l.42.08a12.71,12.71,0,0,0,1.84.35,2.41,2.41,0,0,1,.65.18,1.3,1.3,0,0,0,.85,0,3.66,3.66,0,0,0,.51-.21A.64.64,0,0,0,412,313a2.79,2.79,0,0,0-.06-.33,4.09,4.09,0,0,1-.06-1.44c.12-.87.23-1.74.39-2.61l2.39.91a3,3,0,0,1,.81.42,1.12,1.12,0,0,0,.94.13,1.18,1.18,0,0,0,.86-.61.83.83,0,0,0,.15-.44,4.05,4.05,0,0,1,.15-1.24,17.67,17.67,0,0,0,.3-1.89,6,6,0,0,1,.14-.81.46.46,0,0,1,.43-.33,1.31,1.31,0,0,1,.28,0c.83.07,1.67.13,2.5.21a1.71,1.71,0,0,1,.75.2,1.39,1.39,0,0,0,1.23,0,.54.54,0,0,0,.24-.16,1.15,1.15,0,0,0,.4-1,1.45,1.45,0,0,1-.05-.51,15.59,15.59,0,0,0,0-2.66c-.07-.58-.21-1.16,0-1.24l-1.33-1.75A1.7,1.7,0,0,0,422.05,298.51Z"/><path class="cls-15" d="M432.38,312.15a1.53,1.53,0,0,0,.13.92,1.71,1.71,0,0,1,.07.6,8,8,0,0,1-.66,2.94.32.32,0,0,1-.23.16h-.36l-1.78-.18a7.14,7.14,0,0,1-1.93-.26l-.09,0a1.09,1.09,0,0,0-.73.16,1.88,1.88,0,0,0-.61.87.37.37,0,0,0,0,.18c0,.19.07.39.11.58a2,2,0,0,1,.05.69c-.05.45-.08.9-.15,1.34s-.14.66-.21,1a.36.36,0,0,1-.31.2,1,1,0,0,1-.17,0l-1.13-.4c-.84-.29-1.67-.59-2.51-.87-.66-.21-1.1.37-1.19.94a2.19,2.19,0,0,0,0,.36,11.38,11.38,0,0,1,0,1.87,7,7,0,0,0-.14,1.11,8.39,8.39,0,0,1-.1.86c0,.25-.06.34-.43.29a2.11,2.11,0,0,1-.25,0,18.71,18.71,0,0,1-2.78-.76,2.58,2.58,0,0,0-.56-.16.63.63,0,0,0-.56.22.94.94,0,0,0-.27.47,1.69,1.69,0,0,0,0,.92,1.6,1.6,0,0,1,.09.58,7.44,7.44,0,0,1-.49,2.81.31.31,0,0,1-.22.14l-.34,0c-.57-.09-1.13-.19-1.7-.26a6.71,6.71,0,0,1-1.84-.33l-.08,0a.91.91,0,0,0-.68.12,1.52,1.52,0,0,0-.54.81.33.33,0,0,0,0,.17c0,.19.08.38.13.57a2.16,2.16,0,0,1,.08.67c0,.43,0,.86-.08,1.28s-.11.63-.16.95a.3.3,0,0,1-.28.17.86.86,0,0,1-.17,0l-1.09-.43c-.8-.32-1.6-.65-2.42-1a.92.92,0,0,0-1,.28l1.33,1.76.11,0,2.61,1.11a3.2,3.2,0,0,1,.79.44,1.08,1.08,0,0,0,.9.17,1,1,0,0,0,.79-.55.71.71,0,0,0,.12-.42,4.37,4.37,0,0,1,.08-1.19,15.76,15.76,0,0,0,.21-1.8,5.2,5.2,0,0,1,.1-.78.39.39,0,0,1,.39-.3h.26c.8.1,1.59.2,2.39.32a1.6,1.6,0,0,1,.71.22,1.17,1.17,0,0,0,1.37-.08c.53-.45.24-.9.28-1.46a18.6,18.6,0,0,1,.13-2c.06-.35.09-.69.14-1a.85.85,0,0,1,0-.17c0-.08.13-.17.19-.16a2.84,2.84,0,0,1,.42.08,12.71,12.71,0,0,0,1.84.35,2.3,2.3,0,0,1,.65.17,1.27,1.27,0,0,0,.86,0,5.32,5.32,0,0,0,.5-.21.64.64,0,0,0,.28-.53,1.91,1.91,0,0,0-.06-.33,4.27,4.27,0,0,1-.06-1.43c.12-.87.23-1.74.39-2.61l2.39.91a3,3,0,0,1,.82.42,1.12,1.12,0,0,0,.94.13,1.21,1.21,0,0,0,.86-.61.74.74,0,0,0,.14-.44,4.91,4.91,0,0,1,.15-1.25,15,15,0,0,0,.3-1.88,4.79,4.79,0,0,1,.15-.81.46.46,0,0,1,.42-.34H429l2.5.22a1.71,1.71,0,0,1,.75.2,1.39,1.39,0,0,0,1.23,0,.67.67,0,0,0,.25-.16,1.18,1.18,0,0,0,.39-1,1.51,1.51,0,0,1-.05-.52,15.57,15.57,0,0,0,0-2.66c-.06-.57-.21-1.15,0-1.23l-1.32-1.76A1.88,1.88,0,0,0,432.38,312.15Z"/><rect class="cls-1" x="421.44" y="331.25" width="35.06" height="34.91" transform="translate(-121.5 335.66) rotate(-37.13)"/><path d="M448.22,333.08a1.54,1.54,0,0,0,.14.92,1.7,1.7,0,0,1,.06.6,7.81,7.81,0,0,1-.65,2.94.34.34,0,0,1-.24.16h-.36c-.59-.06-1.18-.13-1.78-.18a7.19,7.19,0,0,1-1.93-.26l-.09,0a1.05,1.05,0,0,0-.72.16,1.74,1.74,0,0,0-.61.87.37.37,0,0,0,0,.18c0,.19.06.39.11.58a2.25,2.25,0,0,1,.05.69c-.05.45-.09.9-.15,1.34s-.14.66-.21,1a.37.37,0,0,1-.31.2l-.17,0-1.14-.4c-.83-.29-1.66-.59-2.51-.87-.65-.21-1.09.37-1.18.94,0,.12,0,.24,0,.36a11.12,11.12,0,0,1,0,1.86,8.83,8.83,0,0,0-.15,1.12,6.27,6.27,0,0,1-.09.86c0,.25-.07.34-.43.29a2.11,2.11,0,0,1-.26,0,18.58,18.58,0,0,1-2.77-.76,2.12,2.12,0,0,0-.56-.16.64.64,0,0,0-.57.22,1,1,0,0,0-.26.47,1.6,1.6,0,0,0,0,.92,1.85,1.85,0,0,1,.09.58,7.45,7.45,0,0,1-.5,2.81.29.29,0,0,1-.21.14l-.35,0c-.56-.09-1.12-.19-1.69-.26a6.58,6.58,0,0,1-1.84-.33l-.09,0a.92.92,0,0,0-.68.12,1.52,1.52,0,0,0-.54.81.32.32,0,0,0,0,.17c0,.19.08.38.13.57a2.51,2.51,0,0,1,.08.67c0,.43,0,.85-.09,1.28s-.1.63-.16.95c0,.09-.18.19-.28.17l-.16,0-1.09-.42c-.81-.32-1.61-.65-2.42-1a.92.92,0,0,0-1,.28l1.33,1.76.11,0,2.61,1.11a3.4,3.4,0,0,1,.79.44,1.08,1.08,0,0,0,.9.17,1,1,0,0,0,.78-.55.68.68,0,0,0,.12-.42,4.38,4.38,0,0,1,.09-1.19,13.77,13.77,0,0,0,.2-1.8,4.19,4.19,0,0,1,.11-.78.39.39,0,0,1,.39-.3h.26l2.38.31a1.79,1.79,0,0,1,.72.23,1.17,1.17,0,0,0,1.37-.08c.52-.45.24-.9.28-1.46s0-1.3.12-2c.07-.35.09-.69.14-1a.84.84,0,0,1,0-.17c0-.08.13-.18.19-.16a3.1,3.1,0,0,1,.42.08,12.21,12.21,0,0,0,1.84.35,2.5,2.5,0,0,1,.65.17,1.24,1.24,0,0,0,.85,0,4.4,4.4,0,0,0,.5-.21.65.65,0,0,0,.29-.53l-.06-.33a3.8,3.8,0,0,1-.06-1.43c.11-.87.23-1.74.39-2.61l2.38.91a2.65,2.65,0,0,1,.82.42,1.15,1.15,0,0,0,.94.13,1.2,1.2,0,0,0,.86-.61.83.83,0,0,0,.15-.44,4.15,4.15,0,0,1,.15-1.25,15,15,0,0,0,.29-1.88,6,6,0,0,1,.15-.81.47.47,0,0,1,.43-.34h.28l2.5.22a1.74,1.74,0,0,1,.75.2,1.39,1.39,0,0,0,1.23,0,.63.63,0,0,0,.24-.16,1.12,1.12,0,0,0,.39-1,1.8,1.8,0,0,1-.05-.52,13.72,13.72,0,0,0,0-2.66c-.06-.57-.2-1.15,0-1.23l-1.33-1.76A2.05,2.05,0,0,0,448.22,333.08Z"/><path d="M453.45,340a1.61,1.61,0,0,0,.13.92,1.62,1.62,0,0,1,.07.59,8,8,0,0,1-.65,2.94.34.34,0,0,1-.24.16,2.14,2.14,0,0,1-.36,0c-.6,0-1.19-.13-1.78-.18a6.77,6.77,0,0,1-1.93-.26h-.09a1,1,0,0,0-.73.16,1.8,1.8,0,0,0-.61.86.37.37,0,0,0,0,.18c0,.2.07.39.11.58a2,2,0,0,1,.05.69c-.05.45-.08.9-.15,1.35s-.13.65-.21,1a.34.34,0,0,1-.31.2,1,1,0,0,1-.17,0l-1.13-.4c-.84-.29-1.66-.59-2.51-.86-.66-.22-1.1.37-1.19.94,0,.11,0,.23,0,.35a11.38,11.38,0,0,1,0,1.87,7,7,0,0,0-.14,1.11,8.08,8.08,0,0,1-.1.86c0,.25-.06.34-.43.3a2.13,2.13,0,0,1-.25,0,18.25,18.25,0,0,1-2.77-.76,3.41,3.41,0,0,0-.57-.16.64.64,0,0,0-.56.23.87.87,0,0,0-.27.46,1.69,1.69,0,0,0,0,.92,1.64,1.64,0,0,1,.09.58,7.25,7.25,0,0,1-.49,2.81.31.31,0,0,1-.22.14l-.34,0c-.57-.08-1.13-.18-1.7-.25a7.12,7.12,0,0,1-1.84-.34l-.08,0a.92.92,0,0,0-.68.13,1.45,1.45,0,0,0-.54.81.29.29,0,0,0,0,.16c0,.19.08.38.13.57a1.9,1.9,0,0,1,.08.67c0,.43,0,.86-.08,1.29s-.1.62-.16.94a.3.3,0,0,1-.28.17.86.86,0,0,1-.17,0l-1.09-.43c-.8-.32-1.6-.65-2.41-.95a.9.9,0,0,0-1,.29l1.32,1.75.11,0,2.61,1.11a3.2,3.2,0,0,1,.79.44,1.08,1.08,0,0,0,.9.17,1,1,0,0,0,.79-.55.7.7,0,0,0,.12-.41,4.06,4.06,0,0,1,.09-1.2c.07-.6.19-1.2.2-1.8a4.91,4.91,0,0,1,.1-.77.39.39,0,0,1,.39-.31h.26c.8.1,1.6.2,2.39.32a1.68,1.68,0,0,1,.72.22,1.19,1.19,0,0,0,1.37-.07c.52-.46.23-.91.28-1.46a16.28,16.28,0,0,1,.12-2c.06-.34.09-.69.14-1a1,1,0,0,1,0-.17.23.23,0,0,1,.2-.16c.14,0,.28,0,.41.08a12.71,12.71,0,0,0,1.84.35,2.32,2.32,0,0,1,.65.18,1.33,1.33,0,0,0,.86,0,3.55,3.55,0,0,0,.5-.21.62.62,0,0,0,.28-.53,1.65,1.65,0,0,0-.06-.32,4.34,4.34,0,0,1-.06-1.44c.12-.87.23-1.74.39-2.61L446,351a3,3,0,0,1,.82.42,1.12,1.12,0,0,0,.94.13,1.2,1.2,0,0,0,.86-.61.74.74,0,0,0,.14-.44,4.78,4.78,0,0,1,.15-1.24,15.46,15.46,0,0,0,.3-1.89,4.79,4.79,0,0,1,.15-.81.45.45,0,0,1,.42-.33,1.34,1.34,0,0,1,.28,0c.84.06,1.67.13,2.5.21a1.67,1.67,0,0,1,.75.2,1.39,1.39,0,0,0,1.23,0,.67.67,0,0,0,.25-.16,1.18,1.18,0,0,0,.39-1,1.45,1.45,0,0,1-.05-.51,15.7,15.7,0,0,0,0-2.67c-.06-.57-.21-1.15,0-1.23l-1.32-1.75A1.72,1.72,0,0,0,453.45,340Z"/><path d="M458.58,346.77a1.54,1.54,0,0,0,.14.92,1.45,1.45,0,0,1,.06.59,7.81,7.81,0,0,1-.65,3,.36.36,0,0,1-.24.15h-.36c-.59-.06-1.18-.14-1.78-.18a6.82,6.82,0,0,1-1.93-.27h-.08a1,1,0,0,0-.73.16,1.7,1.7,0,0,0-.61.87.33.33,0,0,0,0,.17c0,.2.06.39.11.59a2.25,2.25,0,0,1,.05.69c-.05.44-.09.89-.15,1.34s-.14.66-.21,1a.34.34,0,0,1-.31.19.86.86,0,0,1-.17,0l-1.13-.39c-.84-.29-1.67-.6-2.51-.87-.66-.21-1.1.37-1.19.94,0,.12,0,.24,0,.35a11.24,11.24,0,0,1,0,1.87,8.37,8.37,0,0,0-.15,1.12,6.13,6.13,0,0,1-.09.85c0,.25-.07.34-.43.3a2.06,2.06,0,0,1-.26,0,17.42,17.42,0,0,1-2.77-.75,2.12,2.12,0,0,0-.56-.16.59.59,0,0,0-.56.22.87.87,0,0,0-.27.46,1.63,1.63,0,0,0,0,.93,1.79,1.79,0,0,1,.09.57,7.44,7.44,0,0,1-.49,2.81.3.3,0,0,1-.22.14,2.06,2.06,0,0,1-.35,0c-.56-.08-1.12-.18-1.69-.25a6.59,6.59,0,0,1-1.84-.34l-.08,0a.94.94,0,0,0-.69.13,1.54,1.54,0,0,0-.54.81.33.33,0,0,0,0,.17c0,.19.08.38.13.57a2.06,2.06,0,0,1,.08.66c0,.43,0,.86-.09,1.29s-.1.63-.16.94a.27.27,0,0,1-.28.18l-.16,0-1.09-.43c-.81-.32-1.61-.65-2.42-.95a.92.92,0,0,0-1,.29l1.33,1.75.11,0,2.61,1.11a3.07,3.07,0,0,1,.79.44,1.16,1.16,0,0,0,.9.17,1,1,0,0,0,.79-.55.67.67,0,0,0,.11-.42,4.42,4.42,0,0,1,.09-1.2,13.77,13.77,0,0,0,.2-1.8,4.2,4.2,0,0,1,.11-.77.39.39,0,0,1,.39-.31h.26c.79.11,1.59.2,2.38.32a1.65,1.65,0,0,1,.72.23,1.21,1.21,0,0,0,1.37-.08c.52-.45.24-.91.28-1.46a18.61,18.61,0,0,1,.13-2c.06-.34.09-.69.13-1a1.09,1.09,0,0,1,.05-.17c0-.08.13-.17.19-.16l.42.08a14.24,14.24,0,0,0,1.84.36,2.08,2.08,0,0,1,.65.17,1.24,1.24,0,0,0,.85,0,3.66,3.66,0,0,0,.51-.21.64.64,0,0,0,.28-.52c0-.11,0-.22-.06-.33a4.09,4.09,0,0,1-.06-1.44c.12-.87.23-1.74.39-2.61l2.39.91a3,3,0,0,1,.81.42,1.12,1.12,0,0,0,.94.13,1.15,1.15,0,0,0,.86-.61.83.83,0,0,0,.15-.43,4.15,4.15,0,0,1,.15-1.25,15.43,15.43,0,0,0,.29-1.89,8,8,0,0,1,.15-.8.46.46,0,0,1,.43-.34,1.31,1.31,0,0,1,.28,0c.83.07,1.67.13,2.5.21a1.75,1.75,0,0,1,.75.21,1.46,1.46,0,0,0,1.23,0,.63.63,0,0,0,.24-.16,1.14,1.14,0,0,0,.39-1,1.45,1.45,0,0,1,0-.51,15.58,15.58,0,0,0,0-2.66c-.07-.58-.21-1.15,0-1.24l-1.33-1.75A2,2,0,0,0,458.58,346.77Z"/><rect class="cls-1" x="421.44" y="331.25" width="35.06" height="34.91" transform="translate(-121.5 335.66) rotate(-37.13)"/><rect class="cls-1" x="351.35" y="296.75" width="35.06" height="34.91" transform="translate(-114.88 286.36) rotate(-37.13)"/><path d="M378.13,298.58a1.61,1.61,0,0,0,.13.92,1.71,1.71,0,0,1,.07.6,7.81,7.81,0,0,1-.65,2.94.34.34,0,0,1-.24.16h-.36c-.6-.06-1.18-.14-1.78-.18a7.14,7.14,0,0,1-1.93-.26l-.09,0a1.05,1.05,0,0,0-.72.16,1.83,1.83,0,0,0-.62.87.33.33,0,0,0,0,.17c0,.2.07.4.11.59a2,2,0,0,1,.05.69c0,.45-.08.89-.15,1.34a8.73,8.73,0,0,1-.21,1,.32.32,0,0,1-.3.19,1.13,1.13,0,0,1-.18,0c-.38-.12-.75-.26-1.13-.39-.83-.29-1.66-.6-2.51-.87-.66-.21-1.09.37-1.18.94a2.2,2.2,0,0,0,0,.36,11.12,11.12,0,0,1,0,1.86,6.27,6.27,0,0,0-.15,1.12c0,.28,0,.57-.1.86s-.06.33-.42.29a2.11,2.11,0,0,1-.26,0,18.25,18.25,0,0,1-2.77-.76,2.19,2.19,0,0,0-.57-.16.63.63,0,0,0-.56.22.89.89,0,0,0-.26.46,1.63,1.63,0,0,0,0,.93,1.41,1.41,0,0,1,.09.58,7.2,7.2,0,0,1-.49,2.8.27.27,0,0,1-.22.15c-.11,0-.23,0-.34,0-.57-.08-1.13-.18-1.7-.25a6.71,6.71,0,0,1-1.84-.33.11.11,0,0,0-.08,0,.87.87,0,0,0-.68.12,1.48,1.48,0,0,0-.54.81.33.33,0,0,0,0,.17c0,.19.08.38.13.57a1.82,1.82,0,0,1,.08.66c0,.43,0,.86-.08,1.29s-.1.63-.16.94a.29.29,0,0,1-.28.18l-.17,0-1.09-.43c-.8-.31-1.6-.64-2.41-.94a.91.91,0,0,0-1,.28l1.32,1.75.11,0L354.6,322a3,3,0,0,1,.8.44,1.1,1.1,0,0,0,.89.17,1,1,0,0,0,.79-.55.75.75,0,0,0,.12-.42,4,4,0,0,1,.09-1.19,13.73,13.73,0,0,0,.2-1.81,5.24,5.24,0,0,1,.1-.77.4.4,0,0,1,.39-.31h.27l2.38.31a1.69,1.69,0,0,1,.72.23,1.19,1.19,0,0,0,1.37-.08c.52-.45.24-.9.28-1.46a16.4,16.4,0,0,1,.12-2c.06-.34.09-.68.14-1,0,0,0-.11,0-.16s.13-.18.2-.16l.42.07a12.22,12.22,0,0,0,1.84.36,2.5,2.5,0,0,1,.65.17,1.3,1.3,0,0,0,.85,0c.17-.06.34-.14.5-.21a.65.65,0,0,0,.29-.53l-.06-.33a4.09,4.09,0,0,1-.07-1.44c.12-.87.23-1.74.4-2.61l2.38.91a3.34,3.34,0,0,1,.82.42,1.12,1.12,0,0,0,.94.14,1.22,1.22,0,0,0,.86-.61.78.78,0,0,0,.14-.44,4.91,4.91,0,0,1,.15-1.25,15.62,15.62,0,0,0,.3-1.88,4.61,4.61,0,0,1,.15-.81.46.46,0,0,1,.43-.34h.27c.84.07,1.68.13,2.51.22a1.61,1.61,0,0,1,.75.2,1.37,1.37,0,0,0,1.22,0,.6.6,0,0,0,.25-.16,1.12,1.12,0,0,0,.39-1,1.51,1.51,0,0,1-.05-.52,14.6,14.6,0,0,0,0-2.66c-.06-.58-.21-1.15,0-1.24l-1.33-1.75A1.8,1.8,0,0,0,378.13,298.58Z"/><path d="M373,291.84a1.54,1.54,0,0,0,.14.92,1.63,1.63,0,0,1,.06.59,7.81,7.81,0,0,1-.65,2.94.34.34,0,0,1-.24.16,2.17,2.17,0,0,1-.36,0c-.59-.05-1.18-.13-1.78-.18a6.82,6.82,0,0,1-1.93-.26h-.09a1,1,0,0,0-.72.16,1.66,1.66,0,0,0-.61.87.33.33,0,0,0,0,.17,5.4,5.4,0,0,0,.11.58,2.27,2.27,0,0,1,.05.69c-.05.45-.09.9-.15,1.35s-.14.65-.21,1a.35.35,0,0,1-.31.2.86.86,0,0,1-.17,0l-1.14-.4c-.83-.29-1.66-.59-2.51-.86-.65-.22-1.09.37-1.18.94,0,.11,0,.23,0,.35a11.22,11.22,0,0,1,0,1.87,8.45,8.45,0,0,0-.15,1.11,6.11,6.11,0,0,1-.09.86c0,.25-.07.34-.43.3a2.06,2.06,0,0,1-.26,0,18.58,18.58,0,0,1-2.77-.76,3.3,3.3,0,0,0-.56-.16.64.64,0,0,0-.57.23.92.92,0,0,0-.26.46,1.6,1.6,0,0,0,0,.92,1.9,1.9,0,0,1,.09.58,7.45,7.45,0,0,1-.5,2.81.29.29,0,0,1-.21.14c-.12,0-.23,0-.35,0-.56-.08-1.12-.18-1.69-.25a7,7,0,0,1-1.84-.34l-.09,0a.93.93,0,0,0-.68.13,1.45,1.45,0,0,0-.54.81.29.29,0,0,0,0,.16c0,.19.08.39.13.57a2.51,2.51,0,0,1,.08.67c0,.43-.05.86-.09,1.29s-.1.62-.16.94a.27.27,0,0,1-.28.17.9.9,0,0,1-.16,0l-1.09-.43c-.81-.32-1.61-.65-2.42-1a.91.91,0,0,0-1,.29l1.33,1.75.11,0c.86.38,1.74.74,2.61,1.11a3.4,3.4,0,0,1,.79.44,1.08,1.08,0,0,0,.9.17,1,1,0,0,0,.78-.55.63.63,0,0,0,.12-.41,4.42,4.42,0,0,1,.09-1.2,13.77,13.77,0,0,0,.2-1.8,4,4,0,0,1,.11-.77.39.39,0,0,1,.39-.31h.26c.79.1,1.59.2,2.38.32a1.64,1.64,0,0,1,.72.22,1.19,1.19,0,0,0,1.37-.07c.52-.46.24-.91.28-1.46s0-1.31.12-2c.07-.34.09-.69.14-1a1.09,1.09,0,0,1,.05-.17.22.22,0,0,1,.19-.16l.42.08a12.21,12.21,0,0,0,1.84.35,2.52,2.52,0,0,1,.65.18,1.3,1.3,0,0,0,.85,0,3.11,3.11,0,0,0,.5-.21.65.65,0,0,0,.29-.53l-.06-.32a3.87,3.87,0,0,1-.06-1.44c.11-.87.23-1.74.39-2.61l2.38.91a2.89,2.89,0,0,1,.82.42,1.12,1.12,0,0,0,.94.13,1.2,1.2,0,0,0,.86-.61.83.83,0,0,0,.15-.44,4.05,4.05,0,0,1,.15-1.24,15.43,15.43,0,0,0,.29-1.89,6,6,0,0,1,.15-.81.46.46,0,0,1,.43-.33,1.31,1.31,0,0,1,.28,0c.83.07,1.67.13,2.5.21a1.74,1.74,0,0,1,.75.2,1.39,1.39,0,0,0,1.23,0,.63.63,0,0,0,.24-.16,1.11,1.11,0,0,0,.39-1,1.73,1.73,0,0,1,0-.51,13.74,13.74,0,0,0,0-2.66c-.06-.58-.2-1.16,0-1.24l-1.33-1.75A1.87,1.87,0,0,0,373,291.84Z"/><path d="M383.36,305.48a1.53,1.53,0,0,0,.13.92,1.71,1.71,0,0,1,.07.6,8,8,0,0,1-.66,2.94.32.32,0,0,1-.23.16h-.37c-.59-.06-1.18-.13-1.78-.18a7.25,7.25,0,0,1-1.93-.26l-.08,0a1.08,1.08,0,0,0-.73.16,1.81,1.81,0,0,0-.61.87.37.37,0,0,0,0,.18c0,.19.06.39.11.58a2,2,0,0,1,.05.69c-.05.45-.08.9-.15,1.34s-.14.66-.21,1a.37.37,0,0,1-.31.2.86.86,0,0,1-.17,0l-1.13-.4c-.84-.29-1.67-.59-2.51-.87-.66-.21-1.1.37-1.19.94a2.19,2.19,0,0,0,0,.36,12.62,12.62,0,0,1,0,1.87,7,7,0,0,0-.14,1.11,8.39,8.39,0,0,1-.1.86c0,.25-.07.34-.43.29a2.28,2.28,0,0,1-.26,0,18.58,18.58,0,0,1-2.77-.76,2.12,2.12,0,0,0-.56-.16.62.62,0,0,0-.56.22.94.94,0,0,0-.27.47,1.69,1.69,0,0,0,0,.92,1.85,1.85,0,0,1,.09.58,7.44,7.44,0,0,1-.49,2.81.33.33,0,0,1-.22.14l-.34,0c-.57-.09-1.13-.19-1.7-.26a6.65,6.65,0,0,1-1.84-.33l-.08,0a.91.91,0,0,0-.68.12,1.6,1.6,0,0,0-.55.81.47.47,0,0,0,0,.17c0,.19.08.38.13.57a2.16,2.16,0,0,1,.08.67c0,.43,0,.85-.09,1.28s-.1.63-.15,1a.3.3,0,0,1-.29.17.9.9,0,0,1-.16,0l-1.09-.43c-.81-.32-1.6-.65-2.42-.95a.92.92,0,0,0-1,.28l1.33,1.76.11,0,2.61,1.11a3.2,3.2,0,0,1,.79.44,1.08,1.08,0,0,0,.9.17,1,1,0,0,0,.79-.55.71.71,0,0,0,.12-.42,4.37,4.37,0,0,1,.08-1.19,13.77,13.77,0,0,0,.2-1.8,7,7,0,0,1,.11-.78.39.39,0,0,1,.39-.3h.26l2.38.31a1.74,1.74,0,0,1,.72.23,1.17,1.17,0,0,0,1.37-.08c.53-.45.24-.9.28-1.46a18.6,18.6,0,0,1,.13-2c.06-.35.09-.69.13-1a.84.84,0,0,1,0-.17c0-.08.13-.17.19-.16a3.1,3.1,0,0,1,.42.08,12.71,12.71,0,0,0,1.84.35,2.3,2.3,0,0,1,.65.17,1.24,1.24,0,0,0,.85,0,4.55,4.55,0,0,0,.51-.21.64.64,0,0,0,.28-.53,1.91,1.91,0,0,0-.06-.33,4,4,0,0,1-.06-1.43c.12-.87.23-1.74.39-2.61l2.39.91a2.72,2.72,0,0,1,.81.42,1.35,1.35,0,0,0,1.8-.48.75.75,0,0,0,.15-.44,4.15,4.15,0,0,1,.15-1.25,15,15,0,0,0,.3-1.88,6,6,0,0,1,.14-.81.47.47,0,0,1,.43-.34H380l2.5.22a1.71,1.71,0,0,1,.75.2,1.39,1.39,0,0,0,1.23,0,.56.56,0,0,0,.24-.16,1.16,1.16,0,0,0,.4-1,1.51,1.51,0,0,1-.05-.52,15.57,15.57,0,0,0,0-2.66c-.06-.57-.21-1.15,0-1.23l-1.33-1.76A2,2,0,0,0,383.36,305.48Z"/><rect class="cls-1" x="351.35" y="296.75" width="35.06" height="34.91" transform="translate(-114.88 286.36) rotate(-37.13)"/><rect class="cls-1" x="372.42" y="324.58" width="35.06" height="34.91" transform="translate(-127.41 304.72) rotate(-37.13)"/><path class="cls-5" d="M399.2,326.41a1.61,1.61,0,0,0,.13.92,1.71,1.71,0,0,1,.07.6,7.81,7.81,0,0,1-.65,2.94.34.34,0,0,1-.24.16h-.36c-.59-.06-1.18-.13-1.78-.18a7.19,7.19,0,0,1-1.93-.26l-.09,0a1.05,1.05,0,0,0-.72.16,1.74,1.74,0,0,0-.61.87.37.37,0,0,0,0,.18c0,.19.07.39.11.58a2.25,2.25,0,0,1,.06.69c-.05.45-.09.9-.15,1.34s-.14.66-.22,1a.34.34,0,0,1-.3.2l-.18,0-1.13-.4c-.83-.29-1.66-.6-2.51-.87-.65-.21-1.09.37-1.18.94,0,.12,0,.24,0,.36a11.12,11.12,0,0,1,0,1.86,6.27,6.27,0,0,0-.15,1.12c0,.29,0,.57-.09.86s-.07.34-.43.29a2.11,2.11,0,0,1-.26,0,18.25,18.25,0,0,1-2.77-.76,2.19,2.19,0,0,0-.57-.16.63.63,0,0,0-.56.22,1,1,0,0,0-.26.47,1.6,1.6,0,0,0,0,.92,1.41,1.41,0,0,1,.09.58,7.25,7.25,0,0,1-.49,2.81.29.29,0,0,1-.21.14l-.35,0c-.56-.09-1.13-.19-1.69-.26a6.58,6.58,0,0,1-1.84-.33l-.09,0a.92.92,0,0,0-.68.12,1.52,1.52,0,0,0-.54.81.33.33,0,0,0,0,.17c0,.19.08.38.13.57a1.9,1.9,0,0,1,.08.67c0,.43,0,.85-.08,1.28s-.1.63-.16.95a.3.3,0,0,1-.28.17l-.17,0-1.09-.42c-.8-.32-1.6-.65-2.41-.95a.91.91,0,0,0-1,.28l1.33,1.76a.38.38,0,0,1,.1,0l2.61,1.11a3.27,3.27,0,0,1,.8.44,1.08,1.08,0,0,0,.9.17,1,1,0,0,0,.78-.55.75.75,0,0,0,.12-.42,4.38,4.38,0,0,1,.09-1.19,13.77,13.77,0,0,0,.2-1.8,5.2,5.2,0,0,1,.1-.78.42.42,0,0,1,.4-.31h.26l2.38.31a1.79,1.79,0,0,1,.72.23,1.17,1.17,0,0,0,1.37-.08c.52-.45.24-.9.28-1.46a18.57,18.57,0,0,1,.12-2c.06-.35.09-.69.14-1,0-.06,0-.12,0-.17s.13-.18.2-.16l.42.07a12.22,12.22,0,0,0,1.84.36,2.5,2.5,0,0,1,.65.17,1.24,1.24,0,0,0,.85,0,4.4,4.4,0,0,0,.5-.21.65.65,0,0,0,.29-.53l-.06-.33a3.8,3.8,0,0,1-.06-1.43c.11-.87.22-1.74.39-2.61l2.38.91a2.77,2.77,0,0,1,.82.42,1.15,1.15,0,0,0,.94.13,1.22,1.22,0,0,0,.86-.61.76.76,0,0,0,.14-.44,4.91,4.91,0,0,1,.15-1.25,13.61,13.61,0,0,0,.3-1.88,6,6,0,0,1,.15-.81.47.47,0,0,1,.43-.34h.27l2.51.22a1.74,1.74,0,0,1,.75.2,1.39,1.39,0,0,0,1.23,0,.63.63,0,0,0,.24-.16,1.12,1.12,0,0,0,.39-1,1.8,1.8,0,0,1-.05-.52,14.59,14.59,0,0,0,0-2.66c-.06-.57-.21-1.15,0-1.23l-1.33-1.76A1.88,1.88,0,0,0,399.2,326.41Z"/><path class="cls-15" d="M394.09,319.67a1.54,1.54,0,0,0,.14.92,1.62,1.62,0,0,1,.07.59,7.93,7.93,0,0,1-.66,2.94.34.34,0,0,1-.23.16c-.13,0-.25,0-.37,0-.59-.06-1.18-.14-1.78-.19a6.52,6.52,0,0,1-1.93-.26h-.08a1,1,0,0,0-.73.16,1.7,1.7,0,0,0-.61.87.33.33,0,0,0,0,.17c0,.2.06.39.11.59a2.23,2.23,0,0,1,.05.69c-.05.44-.09.89-.15,1.34s-.14.66-.21,1a.34.34,0,0,1-.31.2.86.86,0,0,1-.17,0l-1.13-.39c-.84-.3-1.67-.6-2.51-.87-.66-.21-1.1.37-1.19.94a2.16,2.16,0,0,0,0,.35,12.62,12.62,0,0,1,0,1.87,8.45,8.45,0,0,0-.15,1.11,6.11,6.11,0,0,1-.09.86c0,.25-.07.34-.43.3a2.06,2.06,0,0,1-.26,0,18.55,18.55,0,0,1-2.77-.75,2.6,2.6,0,0,0-.56-.17.62.62,0,0,0-.56.23.87.87,0,0,0-.27.46,1.63,1.63,0,0,0,0,.93,1.79,1.79,0,0,1,.09.57,7.44,7.44,0,0,1-.49,2.81.33.33,0,0,1-.22.14,2.06,2.06,0,0,1-.35,0c-.56-.08-1.12-.18-1.69-.25a7,7,0,0,1-1.84-.34l-.08,0a.94.94,0,0,0-.69.13,1.5,1.5,0,0,0-.54.81.5.5,0,0,0,0,.17c0,.19.08.38.13.56a2.16,2.16,0,0,1,.08.67c0,.43,0,.86-.09,1.29s-.1.63-.16.94a.27.27,0,0,1-.28.18l-.16,0-1.09-.43c-.81-.32-1.61-.65-2.42-.95a.92.92,0,0,0-1,.29l1.33,1.75.11,0,2.61,1.12a3.07,3.07,0,0,1,.79.44,1.12,1.12,0,0,0,.9.16,1,1,0,0,0,.79-.55.62.62,0,0,0,.11-.41,4.42,4.42,0,0,1,.09-1.2,13.77,13.77,0,0,0,.2-1.8,4.08,4.08,0,0,1,.11-.77.39.39,0,0,1,.39-.31,2.26,2.26,0,0,1,.26,0c.79.1,1.59.2,2.38.32a1.78,1.78,0,0,1,.72.22,1.19,1.19,0,0,0,1.37-.07c.52-.45.24-.91.28-1.46a18.61,18.61,0,0,1,.13-2c.06-.34.09-.69.13-1a1.09,1.09,0,0,1,0-.17c0-.08.13-.17.19-.16l.42.08a12.71,12.71,0,0,0,1.84.35,2.41,2.41,0,0,1,.65.18,1.24,1.24,0,0,0,.85,0,3.66,3.66,0,0,0,.51-.21.64.64,0,0,0,.28-.52c0-.11,0-.22-.06-.33a4.09,4.09,0,0,1-.06-1.44c.12-.87.23-1.74.39-2.61l2.39.91a3,3,0,0,1,.81.42,1.12,1.12,0,0,0,.94.13,1.18,1.18,0,0,0,.86-.61.83.83,0,0,0,.15-.43,4.15,4.15,0,0,1,.15-1.25,17.67,17.67,0,0,0,.3-1.89,5.84,5.84,0,0,1,.14-.8.46.46,0,0,1,.43-.34,1.31,1.31,0,0,1,.28,0c.83.07,1.67.13,2.5.21a1.74,1.74,0,0,1,.75.2,1.43,1.43,0,0,0,1.23,0,.66.66,0,0,0,.24-.17,1.11,1.11,0,0,0,.39-1,1.45,1.45,0,0,1,0-.51,15.59,15.59,0,0,0,0-2.66c-.07-.58-.21-1.16,0-1.24L394.44,319A2,2,0,0,0,394.09,319.67Z"/><path class="cls-15" d="M404.43,333.32a1.49,1.49,0,0,0,.13.91,1.71,1.71,0,0,1,.07.6,8,8,0,0,1-.66,2.94.32.32,0,0,1-.23.16,2.14,2.14,0,0,1-.36,0c-.6-.05-1.19-.13-1.79-.18a6.75,6.75,0,0,1-1.92-.26h-.09a1,1,0,0,0-.73.16,1.8,1.8,0,0,0-.61.86.37.37,0,0,0,0,.18c0,.19.07.39.11.58a2,2,0,0,1,0,.69c0,.45-.08.9-.15,1.35s-.14.65-.21,1a.34.34,0,0,1-.31.2.86.86,0,0,1-.17,0l-1.13-.4c-.84-.29-1.67-.59-2.51-.86-.66-.22-1.1.37-1.19.93a2.19,2.19,0,0,0,0,.36,12.62,12.62,0,0,1,0,1.87,7,7,0,0,0-.14,1.11,8.08,8.08,0,0,1-.1.86c0,.25-.06.34-.43.3a2.13,2.13,0,0,1-.25,0,18.38,18.38,0,0,1-2.78-.76,3.3,3.3,0,0,0-.56-.16.6.6,0,0,0-.56.23.87.87,0,0,0-.27.46,1.69,1.69,0,0,0,0,.92,1.6,1.6,0,0,1,.09.58,7.44,7.44,0,0,1-.49,2.81.31.31,0,0,1-.22.14l-.34,0c-.57-.08-1.13-.18-1.7-.25a7.12,7.12,0,0,1-1.84-.34l-.08,0a1,1,0,0,0-.68.12,1.58,1.58,0,0,0-.55.82.43.43,0,0,0,0,.16c0,.19.08.38.13.57a2.16,2.16,0,0,1,.08.67c0,.43,0,.86-.09,1.29s-.1.62-.15.94a.3.3,0,0,1-.28.17.86.86,0,0,1-.17,0l-1.09-.43c-.8-.32-1.6-.65-2.42-.95a.91.91,0,0,0-1,.29l1.33,1.75.11,0,2.61,1.11a3.2,3.2,0,0,1,.79.44,1.08,1.08,0,0,0,.9.17,1,1,0,0,0,.79-.55.7.7,0,0,0,.12-.41,4.41,4.41,0,0,1,.08-1.2,15.76,15.76,0,0,0,.21-1.8,5.2,5.2,0,0,1,.1-.78.39.39,0,0,1,.39-.3h.26c.8.1,1.59.2,2.39.32a1.6,1.6,0,0,1,.71.22,1.19,1.19,0,0,0,1.37-.07c.53-.46.24-.91.28-1.47a18.6,18.6,0,0,1,.13-2c.06-.34.09-.69.13-1,0-.06,0-.11.05-.17s.13-.17.19-.16.29,0,.42.08a12.71,12.71,0,0,0,1.84.35,2,2,0,0,1,.65.18,1.33,1.33,0,0,0,.86,0,3.55,3.55,0,0,0,.5-.21.64.64,0,0,0,.28-.53,1.91,1.91,0,0,0-.06-.33,4.27,4.27,0,0,1-.06-1.43c.12-.87.23-1.74.39-2.61l2.39.91a3,3,0,0,1,.82.42,1.12,1.12,0,0,0,.94.13,1.18,1.18,0,0,0,.85-.61.69.69,0,0,0,.15-.44,4.5,4.5,0,0,1,.15-1.25,15,15,0,0,0,.3-1.88,4.79,4.79,0,0,1,.15-.81.47.47,0,0,1,.42-.34h.28c.83.06,1.67.13,2.5.21a1.71,1.71,0,0,1,.75.2,1.39,1.39,0,0,0,1.23,0,.67.67,0,0,0,.25-.16,1.18,1.18,0,0,0,.39-1,1.45,1.45,0,0,1-.05-.51,15.7,15.7,0,0,0,0-2.67c-.06-.57-.21-1.15,0-1.23l-1.32-1.75A1.72,1.72,0,0,0,404.43,333.32Z"/><rect class="cls-1" x="372.42" y="324.58" width="35.06" height="34.91" transform="translate(-127.41 304.72) rotate(-37.13)"/><rect class="cls-1" x="393.49" y="352.41" width="35.06" height="34.91" transform="translate(-139.94 323.08) rotate(-37.13)"/><path d="M420.27,354.25a1.58,1.58,0,0,0,.13.91,1.5,1.5,0,0,1,.07.6,7.81,7.81,0,0,1-.65,2.94.34.34,0,0,1-.24.16,2.17,2.17,0,0,1-.36,0c-.59-.06-1.18-.13-1.78-.18a7.19,7.19,0,0,1-1.93-.26h-.09a1,1,0,0,0-.72.16,1.68,1.68,0,0,0-.61.86.55.55,0,0,0,0,.18c0,.19.07.39.12.58a2.27,2.27,0,0,1,.05.69c-.05.45-.09.9-.15,1.35s-.14.65-.22,1a.33.33,0,0,1-.3.2l-.18,0-1.13-.4c-.83-.29-1.66-.59-2.51-.87-.65-.21-1.09.38-1.18.94,0,.12,0,.24,0,.36a11.22,11.22,0,0,1,0,1.87,7,7,0,0,0-.15,1.11,6.11,6.11,0,0,1-.09.86c-.05.25-.07.34-.43.29a2.11,2.11,0,0,1-.26,0,18.58,18.58,0,0,1-2.77-.76,3.58,3.58,0,0,0-.56-.16.64.64,0,0,0-.57.22,1,1,0,0,0-.26.47,1.52,1.52,0,0,0,0,.92,1.85,1.85,0,0,1,.09.58,7.45,7.45,0,0,1-.5,2.81.29.29,0,0,1-.21.14l-.35,0c-.56-.09-1.12-.19-1.69-.25a7,7,0,0,1-1.84-.34l-.09,0a.92.92,0,0,0-.68.12,1.52,1.52,0,0,0-.54.81.25.25,0,0,0,0,.17c0,.19.08.38.13.57a2.15,2.15,0,0,1,.07.67c0,.43,0,.86-.08,1.29s-.1.62-.16.94c0,.09-.18.19-.28.17l-.17,0-1.08-.43c-.81-.32-1.61-.65-2.42-.95a.92.92,0,0,0-1,.28l1.33,1.76.11,0,2.61,1.11a3.4,3.4,0,0,1,.79.44,1.08,1.08,0,0,0,.9.17,1,1,0,0,0,.78-.55.63.63,0,0,0,.12-.41,4.42,4.42,0,0,1,.09-1.2,13.77,13.77,0,0,0,.2-1.8,4.19,4.19,0,0,1,.11-.78.39.39,0,0,1,.39-.3h.26c.79.1,1.59.2,2.38.32a1.64,1.64,0,0,1,.72.22,1.17,1.17,0,0,0,1.37-.08c.52-.45.24-.9.28-1.46s0-1.3.12-2c.07-.35.09-.69.14-1a.84.84,0,0,1,.05-.17.21.21,0,0,1,.19-.16,3.1,3.1,0,0,1,.42.08,12.21,12.21,0,0,0,1.84.35,2.5,2.5,0,0,1,.65.17,1.24,1.24,0,0,0,.85,0,4.4,4.4,0,0,0,.5-.21.65.65,0,0,0,.29-.53l-.06-.33a3.8,3.8,0,0,1-.06-1.43c.11-.87.23-1.74.39-2.61l2.38.91a2.89,2.89,0,0,1,.82.42,1.12,1.12,0,0,0,.94.13,1.2,1.2,0,0,0,.86-.61.83.83,0,0,0,.15-.44,4.49,4.49,0,0,1,.14-1.25,13.37,13.37,0,0,0,.3-1.88,6,6,0,0,1,.15-.81.47.47,0,0,1,.43-.34h.27c.84.06,1.68.13,2.51.21a1.74,1.74,0,0,1,.75.2,1.39,1.39,0,0,0,1.23,0,.63.63,0,0,0,.24-.16,1.12,1.12,0,0,0,.39-1,1.77,1.77,0,0,1,0-.52,14.59,14.59,0,0,0,0-2.66c-.06-.57-.2-1.15,0-1.23l-1.33-1.76A2,2,0,0,0,420.27,354.25Z"/><path d="M425.5,361.15a1.61,1.61,0,0,0,.13.92,1.62,1.62,0,0,1,.07.59,8.12,8.12,0,0,1-.65,2.94.34.34,0,0,1-.24.16h-.36c-.6-.06-1.19-.14-1.78-.19a6.77,6.77,0,0,1-1.93-.26h-.09a1,1,0,0,0-.73.16,1.83,1.83,0,0,0-.61.87.33.33,0,0,0,0,.17c0,.2.07.39.11.59a2,2,0,0,1,.05.69c-.05.44-.08.89-.15,1.34s-.13.66-.21,1a.33.33,0,0,1-.31.2,1,1,0,0,1-.17,0l-1.13-.39c-.84-.3-1.66-.6-2.51-.87-.66-.21-1.1.37-1.19.94,0,.12,0,.24,0,.35a11.38,11.38,0,0,1,0,1.87,7,7,0,0,0-.14,1.11,8.08,8.08,0,0,1-.1.86c0,.25-.06.34-.43.3a2.13,2.13,0,0,1-.25,0,18.23,18.23,0,0,1-2.77-.75,2.69,2.69,0,0,0-.57-.17.64.64,0,0,0-.56.23.87.87,0,0,0-.27.46,1.73,1.73,0,0,0,0,.93,1.55,1.55,0,0,1,.09.57,7.25,7.25,0,0,1-.49,2.81.31.31,0,0,1-.22.14,1.94,1.94,0,0,1-.34,0c-.57-.08-1.13-.18-1.7-.25a7.12,7.12,0,0,1-1.84-.34l-.08,0a.92.92,0,0,0-.68.13,1.45,1.45,0,0,0-.54.81.29.29,0,0,0,0,.16c0,.2.08.39.13.57a2.16,2.16,0,0,1,.08.67c0,.43,0,.86-.08,1.29s-.11.63-.16.94a.27.27,0,0,1-.28.17.86.86,0,0,1-.17,0l-1.09-.43c-.8-.32-1.6-.65-2.42-.95a.9.9,0,0,0-1,.29l1.32,1.75.11,0,2.61,1.11a2.94,2.94,0,0,1,.79.45,1.12,1.12,0,0,0,.9.16,1,1,0,0,0,.79-.55.7.7,0,0,0,.12-.41,4.06,4.06,0,0,1,.09-1.2c.07-.6.19-1.2.2-1.8a5.07,5.07,0,0,1,.1-.77.39.39,0,0,1,.39-.31h.26c.8.1,1.6.2,2.39.32a1.68,1.68,0,0,1,.72.22,1.19,1.19,0,0,0,1.37-.07c.52-.45.23-.91.27-1.46a18.61,18.61,0,0,1,.13-2c.06-.34.09-.69.14-1a1,1,0,0,1,0-.17.23.23,0,0,1,.2-.16l.41.08a12.71,12.71,0,0,0,1.84.35,2.32,2.32,0,0,1,.65.18,1.33,1.33,0,0,0,.86,0,3.55,3.55,0,0,0,.5-.21.62.62,0,0,0,.28-.52,1.61,1.61,0,0,0-.06-.33,4.34,4.34,0,0,1-.06-1.44c.12-.87.23-1.74.39-2.61l2.39.91a3,3,0,0,1,.82.42,1.12,1.12,0,0,0,.94.13,1.2,1.2,0,0,0,.86-.61.74.74,0,0,0,.14-.44,4.83,4.83,0,0,1,.15-1.24,15.46,15.46,0,0,0,.3-1.89,4.5,4.5,0,0,1,.15-.8.45.45,0,0,1,.42-.34,1.34,1.34,0,0,1,.28,0c.84.07,1.67.13,2.5.21a1.67,1.67,0,0,1,.75.2,1.39,1.39,0,0,0,1.23,0,.56.56,0,0,0,.25-.16,1.17,1.17,0,0,0,.39-1,1.45,1.45,0,0,1-.05-.51,15.59,15.59,0,0,0,0-2.66c-.06-.58-.21-1.16,0-1.24l-1.32-1.75A1.72,1.72,0,0,0,425.5,361.15Z"/><path d="M430.63,367.93a1.54,1.54,0,0,0,.14.92,1.45,1.45,0,0,1,.06.59,7.81,7.81,0,0,1-.65,2.95.36.36,0,0,1-.24.15h-.36c-.59-.06-1.18-.14-1.78-.18a6.82,6.82,0,0,1-1.93-.27h-.08a1,1,0,0,0-.73.16,1.74,1.74,0,0,0-.61.87.33.33,0,0,0,0,.17,5.59,5.59,0,0,0,.11.59,2.25,2.25,0,0,1,.05.69c-.05.45-.09.89-.15,1.34s-.14.66-.21,1a.34.34,0,0,1-.31.19.86.86,0,0,1-.17,0l-1.14-.39c-.83-.29-1.66-.6-2.5-.87-.66-.21-1.1.37-1.19.94,0,.12,0,.24,0,.36a11.1,11.1,0,0,1,0,1.86,8.37,8.37,0,0,0-.15,1.12,6.44,6.44,0,0,1-.09.86c0,.24-.07.33-.43.29a1.09,1.09,0,0,1-.26,0,17.42,17.42,0,0,1-2.77-.75,2.12,2.12,0,0,0-.56-.16.64.64,0,0,0-.57.22.92.92,0,0,0-.26.46,1.63,1.63,0,0,0,0,.93,1.79,1.79,0,0,1,.09.57,7.6,7.6,0,0,1-.49,2.81.27.27,0,0,1-.22.14,2.06,2.06,0,0,1-.35,0c-.56-.08-1.12-.18-1.69-.25a6.59,6.59,0,0,1-1.84-.34h-.08a.89.89,0,0,0-.69.12,1.48,1.48,0,0,0-.54.81.33.33,0,0,0,0,.17c0,.19.08.38.13.57a2.06,2.06,0,0,1,.08.66c0,.43,0,.86-.09,1.29s-.1.63-.16.94a.27.27,0,0,1-.28.18l-.16,0-1.09-.43c-.81-.32-1.61-.65-2.42-.94a.92.92,0,0,0-1,.28l1.33,1.75.11,0,2.61,1.11a3.07,3.07,0,0,1,.79.44,1.12,1.12,0,0,0,.9.17,1,1,0,0,0,.78-.55.62.62,0,0,0,.12-.42,4.42,4.42,0,0,1,.09-1.2,13.77,13.77,0,0,0,.2-1.8,4.2,4.2,0,0,1,.11-.77.39.39,0,0,1,.39-.31,1.13,1.13,0,0,1,.26,0l2.38.31a1.65,1.65,0,0,1,.72.23,1.19,1.19,0,0,0,1.37-.08c.52-.45.24-.91.28-1.46a18.61,18.61,0,0,1,.13-2c.06-.34.09-.68.13-1a1.54,1.54,0,0,1,.05-.17c0-.08.13-.17.19-.16l.42.08a14.24,14.24,0,0,0,1.84.36,2.5,2.5,0,0,1,.65.17,1.24,1.24,0,0,0,.85,0,3.11,3.11,0,0,0,.5-.21.6.6,0,0,0,.29-.52l-.06-.33a4.09,4.09,0,0,1-.06-1.44c.12-.87.23-1.74.39-2.61l2.38.91a2.89,2.89,0,0,1,.82.42,1.16,1.16,0,0,0,.94.14,1.2,1.2,0,0,0,.86-.61.89.89,0,0,0,.15-.44,4.15,4.15,0,0,1,.15-1.25,15.57,15.57,0,0,0,.29-1.88,5.76,5.76,0,0,1,.15-.81.46.46,0,0,1,.43-.34,1.31,1.31,0,0,1,.28,0c.83.07,1.67.13,2.5.22a1.61,1.61,0,0,1,.75.2,1.43,1.43,0,0,0,1.23,0,.63.63,0,0,0,.24-.16,1.14,1.14,0,0,0,.39-1,1.43,1.43,0,0,1,0-.51,14.79,14.79,0,0,0,0-2.66c-.06-.58-.2-1.15,0-1.24L431,367.26A2,2,0,0,0,430.63,367.93Z"/></g><path class="cls-11" d="M433.86,381s2.55-1.46,5.78-5.83c0,0,14.67-1.58,23.73-22.67,0,0,13.79,30.7-33.2,45.68"/><g class="cls-17"><path class="cls-18" d="M75,542.75H470.8a72,72,0,0,0,72-72v-312c-15.94,60.83-69.41,173-143.27,234C263.19,505.32,117.93,545,75,542.75Z"/></g></g></g></svg>